<?xml version="1.0" encoding="UTF-8"?>
<svg width="170px" height="48px" viewBox="0 0 170 48" version="1.1" xmlns="http://www.w3.org/2000/svg" xmlns:xlink="http://www.w3.org/1999/xlink">
    <!-- Generator: Sketch 39 (31667) - http://www.bohemiancoding.com/sketch -->
    <title>Group 7</title>
    <desc>Created with Sketch.</desc>
    <defs></defs>
    <g id="Page-1" stroke="none" stroke-width="1" fill="none" fill-rule="evenodd">
        <g id="Group-7" fill="#1A1918">
            <path d="M21.1492,30.1214 L21.1492,37.9684 C21.1492,38.7854 21.8122,39.4484 22.6292,39.4484 L29.8422,39.4484 L29.8422,36.6214 L23.9842,36.6214 L23.9842,30.1214 L21.1492,30.1214 Z" id="Fill-70"></path>
            <path d="M5.958,13.732 L12,13.732 L12,8.065 L5.958,8.065 L5.958,13.732 Z M11.529,22.536 L5.958,22.536 L5.958,16.836 L11.841,16.836 C11.841,17.423 11.878,19.995 11.529,22.536 L11.529,22.536 Z M14.901,16.836 L20.94,16.836 L20.94,22.536 L14.559,22.536 C14.882,19.526 14.901,16.836 14.901,16.836 L14.901,16.836 Z M14.905,13.732 L20.941,13.732 L20.941,8.065 L14.905,8.065 L14.905,13.732 Z M46.084,41.662 C45.636,43.278 44.369,43.94 41.712,43.94 L20.026,43.94 C17.359,43.94 16.415,42.976 16.415,40.258 L16.415,30.121 L13.249,30.121 C13.249,30.121 13.838,27.802 14.192,25.636 L23.984,25.636 L23.984,6.402 C23.984,5.585 23.321,4.922 22.504,4.922 L11.789,4.922 L11.789,0.569 L8.543,0.569 L8.543,4.922 L4.335,4.922 C3.517,4.922 2.855,5.585 2.855,6.402 L2.855,25.636 L11.06,25.636 C9.979,32.738 6.433,39.195 0.413,44.947 C1.763,45.905 2.888,47.466 2.888,47.466 C9.708,40.728 12.093,34.237 13.249,30.324 L13.249,40.5 C13.249,45.502 14.933,47.107 20.18,47.107 L41.91,47.107 C46.196,47.107 48.381,45.724 49.217,42.48 C49.592,41.231 49.853,39.74 49.996,38.034 L47.001,37.216 C46.749,38.977 46.441,40.472 46.084,41.662 L46.084,41.662 Z" id="Fill-71"></path>
            <path d="M26.8078,29.7868 C27.5288,30.4638 28.1148,31.2008 28.8968,32.3098 C31.0648,30.5818 34.6508,26.3158 36.3588,22.1638 L36.3598,39.4218 L39.6058,39.4218 L39.6058,22.2688 C41.0968,25.3218 44.3768,29.7178 47.7928,32.3278 C48.5288,31.4448 49.4538,30.2478 49.8858,29.7408 C43.8188,25.4128 41.2508,21.2688 39.7668,17.9718 L48.4738,17.9718 L48.4738,14.8698 L39.6058,14.8698 L39.6058,8.0438 L48.4738,8.0438 L48.4738,4.9428 L39.6058,4.9428 L39.6058,0.5688 L36.3588,0.5688 L36.3588,4.9428 L27.8618,4.9428 L27.8618,8.0438 L36.3588,8.0438 L36.3588,14.8698 L27.8618,14.8698 L27.8618,17.9718 L36.1638,17.9718 C34.2758,22.3698 31.2788,26.2238 26.8078,29.7868" id="Fill-72"></path>
            <polygon id="Fill-73" points="81.209 26.686 99.21 26.686 99.21 23.522 81.209 23.522"></polygon>
            <path d="M99.21,14.8682 L84.605,14.8682 L84.605,11.5462 L81.209,11.5462 L81.209,16.5522 C81.209,17.3692 81.872,18.0322 82.689,18.0322 L99.21,18.0322 L99.21,14.8682 Z" id="Fill-74"></path>
            <polygon id="Fill-75" points="71.696 27.255 75.09 27.255 75.09 11.546 71.696 11.546"></polygon>
            <polygon id="Fill-76" points="61.6 27.255 64.995 27.255 64.995 11.546 61.6 11.546"></polygon>
            <polygon id="Fill-77" points="102.4733 4.9416 93.2943 4.9416 93.2943 0.5686 90.0473 0.5686 90.0473 4.9416 70.4043 4.9416 70.4043 0.5686 67.1583 0.5686 67.1583 4.9416 57.9833 4.9416 57.9833 8.0446 102.4733 8.0446"></polygon>
            <path d="M87.534,43.777 L95.955,43.777 L95.955,34.609 L87.534,34.609 L87.534,43.777 Z M76.174,43.777 L84.287,43.777 L84.287,34.609 L76.174,34.609 L76.174,43.777 Z M64.502,43.777 L72.928,43.777 L72.928,34.609 L64.502,34.609 L64.502,43.777 Z M99.201,43.777 L99.201,32.925 C99.201,32.108 98.538,31.445 97.72,31.445 L62.736,31.445 C61.919,31.445 61.256,32.108 61.256,32.925 L61.256,43.777 L57.332,43.777 L57.332,46.941 L103.124,46.941 L103.124,43.777 L99.201,43.777 Z" id="Fill-78"></path>
            <path d="M143.8026,46.9414 L143.8436,44.5464 C144.9496,41.6164 146.7816,38.6204 148.8636,36.3424 C149.8266,35.2714 150.8596,34.2514 152.0216,33.2214 C153.7496,31.6664 155.4596,30.3544 157.1136,29.0864 C157.5886,28.7224 158.0566,28.3624 158.5206,28.0014 C162.4266,24.9384 165.9326,21.7814 165.9326,16.8424 C165.9326,14.2684 165.0446,12.1134 163.2926,10.4374 C161.5576,8.7754 159.1486,7.9334 156.1336,7.9334 C152.5606,7.9334 149.3886,9.2954 146.7066,11.9814 L144.6666,10.0214 C147.4456,6.7654 151.5376,4.9414 156.1896,4.9414 C159.7686,4.9414 163.0586,6.0544 165.4546,8.0764 C167.8236,10.1094 169.1826,13.2714 169.1826,16.7504 C169.1996,20.3964 167.7346,23.6424 164.7036,26.6734 C163.0046,28.4094 161.0526,29.9224 158.6776,31.7194 C156.1956,33.5984 154.1206,35.3674 152.5096,36.9774 C150.5426,38.9644 148.9906,41.3854 148.1396,43.7944 L148.0906,43.9334 L169.9286,43.9874 L169.8886,46.9414 L143.8026,46.9414 Z" id="Fill-79"></path>
            <path d="M120.6049,43.8956 C119.2309,43.8956 118.1179,42.7816 118.1179,41.4076 L118.1179,27.0266 L137.2019,27.0266 L137.2019,24.0686 L118.1179,24.0686 L118.1179,10.4926 C118.1179,9.0126 119.1469,8.0046 120.6049,8.0046 L138.0749,8.0046 L138.0749,4.9336 L119.3659,4.9336 C116.6929,4.9336 114.5729,7.0796 114.5729,9.7266 L114.5729,42.1486 C114.5729,44.7816 116.7189,46.9416 119.3659,46.9416 L138.0819,46.9416 L138.0819,43.8956 L120.6049,43.8956 Z" id="Fill-80"></path>
        </g>
    </g>
</svg>