<?xml version="1.0" encoding="utf-8"?>
<!-- Generator: Adobe Illustrator 19.0.0, SVG Export Plug-In . SVG Version: 6.00 Build 0)  -->
<svg version="1.1" id="图层_1" xmlns="http://www.w3.org/2000/svg" xmlns:xlink="http://www.w3.org/1999/xlink" x="0px" y="0px"
	 width="377.8px" height="104.4px" viewBox="451 347.4 377.8 104.4" style="enable-background:new 451 347.4 377.8 104.4;"
	 xml:space="preserve">
<g>
	<g>
		<path d="M497.2,413.2v17.5c0,1.8,1.5,3.3,3.3,3.3h16.1v-6.3h-13v-14.5L497.2,413.2L497.2,413.2z"/>
		<path d="M552.7,438.9c-1,3.6-3.8,5.1-9.7,5.1h-48.3c-5.9,0-8-2.1-8-8.2v-22.6h-7c0,0,1.3-5.2,2.1-10h21.8v-42.8
			c0-1.8-1.5-3.3-3.3-3.3h-23.8v-9.7h-7.2v9.7h-9.4c-1.8,0-3.3,1.5-3.3,3.3v42.8h18.3c-2.4,15.8-10.3,30.2-23.7,43
			c3,2.1,5.5,5.6,5.5,5.6c15.2-15,20.5-29.4,23.1-38.1v22.6c0,11.1,3.7,14.7,15.4,14.7h48.4c9.5,0,14.4-3.1,16.3-10.3
			c0.8-2.8,1.4-6.1,1.7-9.9l-6.7-1.8C554.2,432.9,553.5,436.2,552.7,438.9z M483.3,364.1h13.4v12.6h-13.4V364.1z M483.3,383.6h13.4
			v12.7h-14.2C483.2,389.6,483.3,383.6,483.3,383.6z M475.8,396.3h-12.4v-12.7h13.1C476.5,384.9,476.6,390.7,475.8,396.3z
			 M476.8,376.7h-13.4v-12.6h13.4V376.7z"/>
		<path d="M509.8,412.5c1.6,1.5,2.9,3.1,4.6,5.6c4.8-3.8,12.8-13.3,16.6-22.6l0,38.4h7.2v-38.2c3.3,6.8,10.6,16.6,18.2,22.4
			c1.6-2,3.7-4.6,4.7-5.8c-13.5-9.6-19.2-18.9-22.5-26.2H558v-6.9h-19.7v-15.2H558v-6.9h-19.7v-9.7H531v9.7h-18.9v6.9H531v15.2
			h-18.9v6.9h18.5C526.4,396,519.7,404.5,509.8,412.5z"/>
		<rect x="630.9" y="398.5" width="40.1" height="7"/>
		<path d="M670.9,379.3h-32.5v-7.4h-7.6V383c0,1.8,1.5,3.3,3.3,3.3h36.8V379.3z"/>
		<rect x="609.7" y="371.9" width="7.6" height="35"/>
		<rect x="587.2" y="371.9" width="7.6" height="35"/>
		<polygon points="678.2,357.2 657.8,357.2 657.8,347.4 650.5,347.4 650.5,357.2 606.8,357.2 606.8,347.4 599.6,347.4 599.6,357.2 
			579.2,357.2 579.2,364.1 678.2,364.1 		"/>
		<path d="M670.9,443.6v-24.2c0-1.8-1.5-3.3-3.3-3.3h-77.9c-1.8,0-3.3,1.5-3.3,3.3v24.2h-8.7v7h101.9v-7H670.9z M612.4,443.6h-18.8
			v-20.4h18.8V443.6z M637.7,443.6h-18.1v-20.4h18.1L637.7,443.6L637.7,443.6z M663.7,443.6h-18.7v-20.4h18.7V443.6z"/>
	</g>
	<path d="M718.5,443.9c-3.1,0-5.5-2.5-5.5-5.5v-32h42.5v-6.6H713v-30.2c0-3.3,2.3-5.5,5.5-5.5h38.9v-6.8h-41.6
		c-5.9,0-10.7,4.8-10.7,10.7c0,0.2,0,72.2,0,72.2c0,5.9,4.8,10.7,10.7,10.7h41.7v-6.8H718.5z"/>
	<g>
		<path d="M827.2,378.5c0,11.7-5,19.4-14.8,23v0.1c7.5,1.9,16.4,8.9,16.4,21.8c0,21-13,27.3-34,27.3c-9.3,0-17.6-0.9-24.8-2.3
			l0.9-6.6c6.7,0.9,14.1,1.9,21.1,1.9c19.3,0,28.7-4.4,28.7-19.7c0-10.8-7.2-17.1-17.4-18.1c-4-0.4-9.1-0.6-14.2-0.6
			c-1.3,0-2.7,0-4,0v-6.2c6.1-0.1,13-0.7,18.2-1.5c10.2-1.5,15.9-8.3,15.9-16.9c0-15.3-10.5-16.6-25.8-16.6
			c-7.6,0-14.6,0.9-21.7,1.9l-0.8-6.5c7.8-1.4,14.1-2.3,24.5-2.3C812.1,357.3,827.2,360.6,827.2,378.5z"/>
	</g>
</g>
</svg>
