<?xml version="1.0" encoding="UTF-8"?>
<svg width="124px" height="43px" viewBox="0 0 124 43" version="1.1" xmlns="http://www.w3.org/2000/svg" xmlns:xlink="http://www.w3.org/1999/xlink">
    <!-- Generator: Sketch 39 (31667) - http://www.bohemiancoding.com/sketch -->
    <title>Group 16</title>
    <desc>Created with Sketch.</desc>
    <defs></defs>
    <g id="Page-1" stroke="none" stroke-width="1" fill="none" fill-rule="evenodd">
        <g id="Group-16" fill="#1A1918">
            <polygon id="Fill-88" points="91.9521 4.4808 83.7401 4.4808 83.7401 0.5688 80.8351 0.5688 80.8351 4.4808 63.2621 4.4808 63.2621 0.5688 60.3581 0.5688 60.3581 4.4808 52.1491 4.4808 52.1491 7.2568 91.9521 7.2568"></polygon>
            <g id="Group-13">
                <path d="M19.197,27.0075 L19.197,34.0275 C19.197,34.7585 19.79,35.3515 20.521,35.3515 L26.974,35.3515 L26.974,32.8225 L21.733,32.8225 L21.733,27.0075 L19.197,27.0075 Z" id="Fill-81"></path>
                <path d="M5.607,12.345 L11.012,12.345 L11.012,7.275 L5.607,7.275 L5.607,12.345 Z M10.591,20.221 L5.606,20.221 L5.606,15.122 L10.87,15.122 C10.87,15.647 10.902,17.948 10.591,20.221 L10.591,20.221 Z M13.607,15.122 L19.01,15.122 L19.01,20.221 L13.302,20.221 C13.59,17.528 13.607,15.122 13.607,15.122 L13.607,15.122 Z M13.61,12.346 L19.01,12.346 L19.01,7.276 L13.61,7.276 L13.61,12.346 Z M41.504,37.332 C41.103,38.778 39.97,39.37 37.593,39.37 L18.192,39.37 C15.807,39.37 14.962,38.508 14.962,36.076 L14.962,27.008 L12.129,27.008 C12.129,27.008 12.656,24.933 12.973,22.994 L21.733,22.994 L21.733,5.787 C21.733,5.056 21.14,4.463 20.409,4.463 L10.823,4.463 L10.823,0.569 L7.919,0.569 L7.919,4.463 L4.154,4.463 C3.423,4.463 2.83,5.056 2.83,5.787 L2.83,22.994 L10.171,22.994 C9.204,29.349 6.032,35.125 0.646,40.271 C1.854,41.128 2.86,42.524 2.86,42.524 C8.961,36.497 11.095,30.689 12.129,27.189 L12.129,36.292 C12.129,40.767 13.636,42.203 18.33,42.203 L37.77,42.203 C41.605,42.203 43.56,40.966 44.308,38.064 C44.643,36.947 44.876,35.613 45.004,34.086 L42.325,33.354 C42.1,34.93 41.824,36.267 41.504,37.332 L41.504,37.332 Z" id="Fill-82"></path>
                <path d="M24.2594,26.7082 C24.9044,27.3132 25.4284,27.9732 26.1284,28.9652 C28.0674,27.4192 31.2764,23.6032 32.8044,19.8892 L32.8054,35.3282 L35.7094,35.3282 L35.7094,19.9822 C37.0424,22.7132 39.9774,26.6462 43.0334,28.9812 C43.6914,28.1922 44.5194,27.1212 44.9064,26.6672 C39.4784,22.7952 37.1804,19.0882 35.8534,16.1382 L43.6424,16.1382 L43.6424,13.3632 L35.7094,13.3632 L35.7094,7.2562 L43.6424,7.2562 L43.6424,4.4812 L35.7094,4.4812 L35.7094,0.5692 L32.8044,0.5692 L32.8044,4.4812 L25.2024,4.4812 L25.2024,7.2562 L32.8044,7.2562 L32.8044,13.3632 L25.2024,13.3632 L25.2024,16.1382 L32.6294,16.1382 C30.9404,20.0732 28.2594,23.5202 24.2594,26.7082" id="Fill-83"></path>
                <polygon id="Fill-84" points="72.928 23.934 89.032 23.934 89.032 21.103 72.928 21.103"></polygon>
                <path d="M89.0327,13.3615 L75.9667,13.3615 L75.9667,10.3895 L72.9287,10.3895 L72.9287,14.8675 C72.9287,15.5995 73.5217,16.1925 74.2527,16.1925 L89.0327,16.1925 L89.0327,13.3615 Z" id="Fill-85"></path>
                <polygon id="Fill-86" points="64.417 24.443 67.454 24.443 67.454 10.389 64.417 10.389"></polygon>
                <polygon id="Fill-87" points="55.386 24.443 58.423 24.443 58.423 10.389 55.386 10.389"></polygon>
                <path d="M78.586,39.224 L86.12,39.224 L86.12,31.022 L78.586,31.022 L78.586,39.224 Z M68.424,39.224 L75.682,39.224 L75.682,31.022 L68.424,31.022 L68.424,39.224 Z M57.982,39.224 L65.52,39.224 L65.52,31.022 L57.982,31.022 L57.982,39.224 Z M89.024,39.224 L89.024,29.516 C89.024,28.785 88.431,28.192 87.7,28.192 L56.402,28.192 C55.671,28.192 55.078,28.785 55.078,29.516 L55.078,39.224 L51.568,39.224 L51.568,42.055 L92.534,42.055 L92.534,39.224 L89.024,39.224 Z" id="Fill-89"></path>
                <path d="M108.1733,39.3303 C106.9443,39.3303 105.9483,38.3343 105.9483,37.1053 L105.9483,24.2393 L123.0213,24.2393 L123.0213,21.5923 L105.9483,21.5923 L105.9483,9.4463 C105.9483,8.1223 106.8693,7.2213 108.1733,7.2213 L123.8023,7.2213 L123.8023,4.4733 L107.0653,4.4733 C104.6733,4.4733 102.7773,6.3933 102.7773,8.7613 L102.7773,37.7673 C102.7773,40.1223 104.6963,42.0553 107.0653,42.0553 L123.8083,42.0553 L123.8083,39.3303 L108.1733,39.3303 Z" id="Fill-90"></path>
            </g>
        </g>
    </g>
</svg>