<?xml version="1.0" encoding="UTF-8"?>
<svg width="190px" height="43px" viewBox="0 0 190 43" version="1.1" xmlns="http://www.w3.org/2000/svg" xmlns:xlink="http://www.w3.org/1999/xlink">
    <!-- Generator: Sketch 39 (31667) - http://www.bohemiancoding.com/sketch -->
    <title>Group 15</title>
    <desc>Created with Sketch.</desc>
    <defs></defs>
    <g id="Page-1" stroke="none" stroke-width="1" fill="none" fill-rule="evenodd">
        <g id="Group-15" fill="#1A1918">
            <polygon id="Fill-150" points="26.0839 4.2787 24.8859 4.2787 24.8859 4.2787 23.6239 4.2787 23.6239 6.4407 25.0549 6.4407"></polygon>
            <polygon id="Fill-159" points="49.6368 4.249 49.6368 6.428 53.7588 6.428 54.7958 4.249"></polygon>
            <polygon id="Fill-160" points="56.6038 0.3038 56.6038 0.4488 56.6728 0.3038"></polygon>
            <polygon id="Fill-162" points="80.7911 4.249 80.7911 0.304 78.6261 0.304 78.6261 4.249 58.7701 4.249 58.7701 0.304 56.6741 0.304 56.6051 0.449 56.6051 4.249 54.7971 4.249 53.7601 6.428 56.6051 6.428 56.6051 9.508 58.7701 9.508 58.7701 6.428 78.6261 6.428 78.6261 9.508 80.7911 9.508 80.7911 6.428 82.4731 6.428 83.5101 4.249"></polygon>
            <polygon id="Fill-165" points="88.0946 4.2478 83.5256 4.2478 82.4886 6.4268 88.0946 6.4268"></polygon>
            <g id="Group-14">
                <polygon id="Fill-148" points="70.918 23.704 76.219 23.704 76.219 21.54 70.918 21.54"></polygon>
                <polygon id="Fill-149" points="18.5774 20.0532 18.5774 20.2862 18.4664 20.2862 17.4364 22.4512 20.9204 22.4512 20.9204 22.4482 20.9204 20.2872 20.9204 15.1302"></polygon>
                <polygon id="Fill-151" points="20.9289 32.9162 20.9289 24.9732 18.7789 24.9732 18.7789 35.0662 18.7799 35.0662 20.9289 35.0662 28.8719 35.0662 28.8719 32.9162"></polygon>
                <path d="M42.7267,32.2007 C42.4847,33.9947 42.1877,35.4917 41.8287,36.6877 C41.4677,38.3677 40.0257,39.1497 37.5027,39.0307 L18.9377,39.0307 C16.0547,39.1497 14.6717,38.1287 14.7927,35.9677 L14.7927,24.9727 L12.6297,24.9727 L12.6297,36.5077 C12.3877,39.7527 14.3697,41.3117 18.5777,41.1937 L37.6827,41.1937 C41.4057,41.3117 43.5087,39.9917 43.9907,37.2277 C44.3447,36.0477 44.5817,34.6297 44.7047,32.9797 L42.7267,32.2007 Z" id="Fill-152"></path>
                <polygon id="Fill-153" points="52.629 23.704 54.793 23.704 54.793 11.646 52.629 11.646"></polygon>
                <polygon id="Fill-154" points="62.756 23.704 64.92 23.704 64.92 11.646 62.756 11.646"></polygon>
                <path d="M10.6475,10.9135 L10.6475,12.1205 L4.5195,12.1205 L4.5195,6.4605 L10.6475,6.4605 L10.6475,10.9135 Z M10.1075,20.2865 L4.5195,20.2865 L4.5195,14.2835 L10.4655,14.2835 C10.4615,16.5155 10.3415,18.5175 10.1075,20.2865 L10.1075,20.2865 Z M12.6295,10.5545 L12.6295,6.4605 L18.5775,6.4605 L18.5775,12.1205 L12.6295,12.1205 L12.6295,10.5545 Z M18.5775,14.2835 L18.5775,20.0535 L20.9205,15.1305 L20.9205,14.2835 L20.9205,12.1205 L20.9205,6.4605 L20.9205,4.2965 L20.9205,4.2605 L9.7725,4.2605 L9.7725,0.2835 L7.6095,0.2835 L7.6095,4.2605 L2.3565,4.2605 L2.3565,4.2965 L2.3555,4.2965 L2.3555,6.4605 L2.3565,6.4605 L2.3565,12.1205 L2.3555,12.1205 L2.3555,14.2835 L2.3565,14.2835 L2.3565,20.2875 L2.3555,20.2875 L2.3555,22.4515 L9.9265,22.4515 C8.9625,29.4205 5.7805,35.4885 0.3745,40.6535 C0.9735,41.1315 1.5735,41.7345 2.1765,42.4545 C7.8215,36.6875 11.1255,30.0205 12.0895,22.4515 L17.4365,22.4515 L18.4675,20.2865 L12.2695,20.2865 C12.5045,18.5175 12.6235,16.5155 12.6285,14.2835 L18.5775,14.2835 Z" id="Fill-155"></path>
                <path d="M32.2755,17.8066 L32.2755,35.0656 L34.4385,35.0656 L34.4385,17.6266 C36.1205,21.7136 38.6435,25.1376 42.0085,27.8996 C42.6085,27.1796 43.1485,26.5206 43.6305,25.9176 C39.6655,23.1556 36.6605,19.3106 34.6195,14.3826 L43.0895,14.3826 L43.0895,12.2206 L34.4385,12.2206 L34.4385,6.4406 L43.0895,6.4406 L43.0895,4.2786 L42.0085,4.2786 L42.0085,4.2786 L34.4385,4.2786 L34.4385,0.2836 L32.2755,0.2836 L32.2755,4.2786 L26.0845,4.2786 L25.0555,6.4406 L32.2755,6.4406 L32.2755,12.2206 L23.6245,12.2206 L23.6245,14.3826 L32.2755,14.3826 C30.2305,19.3106 27.4095,23.1556 23.8045,25.9176 C24.2835,26.2776 24.7645,26.8816 25.2465,27.7196 C28.3695,25.1966 30.7125,21.8936 32.2755,17.8066" id="Fill-156"></path>
                <polygon id="Fill-157" points="77.3494 17.2267 85.0934 17.2267 85.0934 15.0637 78.3784 15.0637"></polygon>
                <polygon id="Fill-158" points="85.0937 23.7039 85.0937 21.5399 75.2967 21.5399 74.2667 23.7039"></polygon>
                <path d="M74.971,38.3005 L74.982,38.3005 L74.982,28.8425 L82.894,28.8425 L82.894,39.0375 L74.971,39.0375 L74.971,38.3005 Z M74.971,41.2015 L88.078,41.2015 L88.078,39.0375 L85.097,39.0375 L85.097,26.6785 L85.083,26.6785 L84.431,26.6785 L82.919,26.6785 L82.894,26.6785 L74.982,26.6785 L72.835,26.6785 L71.805,28.8425 L72.807,28.8425 L72.807,39.0375 L66.954,39.0375 L65.924,41.2015 L72.807,41.2015 L74.971,41.2015 Z" id="Fill-161"></path>
                <path d="M54.8156,38.7365 L54.8156,28.8425 L62.7526,28.8425 L62.7526,38.3005 L62.7786,38.3005 L62.7786,39.0375 L54.8156,39.0375 L54.8156,38.7365 Z M54.8156,41.2015 L62.7786,41.2015 L64.9426,41.2015 L65.9576,41.2015 L66.9876,39.0375 L64.9426,39.0375 L64.9426,28.8425 L71.8396,28.8425 L72.8686,26.6785 L72.8526,26.6785 L64.9156,26.6785 L62.7526,26.6785 L54.8156,26.6785 L52.6516,26.6785 L52.6516,28.8425 L52.6516,38.7365 L52.6516,39.0375 L49.6706,39.0375 L49.6706,41.2015 L52.6516,41.2015 L54.8156,41.2015 Z" id="Fill-163"></path>
                <polygon id="Fill-164" points="75.0204 15.0635 70.9454 15.0635 70.9454 11.6455 68.7814 11.6455 68.7814 17.2265 70.9454 17.2265 70.9454 17.2265 70.9454 17.2265 77.3494 17.2265 78.3784 15.0635"></polygon>
                <path d="M37.6828,41.194 C41.4058,41.311 43.5088,39.991 43.9908,37.228 C44.3448,36.047 44.5818,34.629 44.7048,32.98 L42.7268,32.201 C42.4848,33.995 42.1878,35.492 41.8278,36.687 C41.5058,38.19 40.3118,38.969 38.2598,39.033 L37.2308,41.194 L37.6828,41.194 Z" id="Fill-166"></path>
                <path d="M119.4796,28.5968 L131.4606,8.5988 C131.9366,7.6178 132.3696,7.2138 133.0056,7.2138 C133.6406,7.2138 134.1886,7.6178 134.2606,8.5988 L136.4556,41.1938 L134.3626,41.1938 L132.3556,11.2118 L120.7356,30.4298 C120.1686,31.2888 120.0206,31.5908 119.4216,31.5908 C118.8016,31.5908 118.6566,31.2888 118.1076,30.4298 L106.5016,11.2118 L104.4236,41.1938 L102.3876,41.1938 L104.6826,8.5988 C104.7556,7.6178 105.2746,7.2138 105.9106,7.2138 C106.5456,7.2138 107.0076,7.6178 107.4836,8.5988 L119.4796,28.5968 Z" id="Fill-167"></path>
                <path d="M161.2753,27.293 C157.8113,27.336 152.5423,27.466 149.3813,28.044 C146.2633,28.621 144.7183,30.065 144.7183,34.02 C144.7183,38.553 147.0133,39.65 153.0333,39.65 C155.7183,39.65 158.5613,39.217 161.2183,38.264 C161.2463,36.907 161.2753,35.03 161.2753,33.774 L161.2753,27.293 Z M163.2393,35.478 C163.2393,36.835 163.2093,38.307 163.1663,39.621 C160.0053,41.021 156.5693,41.541 152.9893,41.541 C146.1613,41.541 142.7113,39.909 142.7113,34.107 C142.7113,29.689 144.5453,26.86 148.8323,26.21 C152.2103,25.705 156.7723,25.546 161.2753,25.402 L161.2753,23.41 C161.2753,18.69 159.9473,17.015 153.0903,17.015 C150.1893,17.015 147.6053,17.391 144.7613,17.823 L144.5593,16.005 C147.6203,15.528 150.2903,15.139 153.8413,15.139 C159.1823,15.139 163.2393,16.438 163.2393,22.717 L163.2393,35.478 Z" id="Fill-168"></path>
                <polygon id="Fill-169" points="178.9679 29.4727 171.1149 41.1937 168.8349 41.1937 177.8269 27.7697 169.5849 15.4847 171.9669 15.4847 179.0259 25.9937 186.0699 15.4847 188.3509 15.4847 180.1659 27.6977 189.2459 41.1937 186.8499 41.1937"></polygon>
            </g>
        </g>
    </g>
</svg>