<?xml version="1.0" encoding="UTF-8"?>
<svg width="161px" height="50px" viewBox="0 0 161 50" version="1.1" xmlns="http://www.w3.org/2000/svg" xmlns:xlink="http://www.w3.org/1999/xlink">
    <!-- Generator: Sketch 39 (31667) - http://www.bohemiancoding.com/sketch -->
    <title>Group 10</title>
    <desc>Created with Sketch.</desc>
    <defs></defs>
    <g id="Page-1" stroke="none" stroke-width="1" fill="none" fill-rule="evenodd">
        <g id="Group-10" fill="#1A1918">
            <path d="M22.0978,31.3294 L22.0978,39.4274 C22.0978,40.2714 22.7918,40.9554 23.6478,40.9554 L31.1978,40.9554 L31.1978,38.0384 L25.0658,38.0384 L25.0658,31.3294 L22.0978,31.3294 Z" id="Fill-102"></path>
            <path d="M6.195,14.414 L12.52,14.414 L12.52,8.566 L6.195,8.566 L6.195,14.414 Z M12.027,23.5 L6.195,23.5 L6.195,17.617 L12.354,17.617 C12.354,18.223 12.392,20.878 12.027,23.5 L12.027,23.5 Z M15.557,17.617 L21.879,17.617 L21.879,23.5 L15.199,23.5 C15.537,20.394 15.557,17.617 15.557,17.617 L15.557,17.617 Z M15.561,14.414 L21.879,14.414 L21.879,8.566 L15.561,8.566 L15.561,14.414 Z M48.2,43.24 C47.731,44.908 46.405,45.591 43.624,45.591 L20.922,45.591 C18.131,45.591 17.142,44.596 17.142,41.791 L17.142,31.329 L13.828,31.329 C13.828,31.329 14.444,28.936 14.815,26.7 L25.065,26.7 L25.065,6.849 C25.065,6.006 24.372,5.322 23.516,5.322 L12.299,5.322 L12.299,0.829 L8.901,0.829 L8.901,5.322 L4.496,5.322 C3.64,5.322 2.947,6.006 2.947,6.849 L2.947,26.7 L11.536,26.7 C10.405,34.03 6.693,40.694 0.391,46.63 C1.804,47.619 2.982,49.23 2.982,49.23 C10.121,42.277 12.618,35.577 13.828,31.539 L13.828,42.041 C13.828,47.203 15.591,48.859 21.084,48.859 L43.831,48.859 C48.318,48.859 50.605,47.432 51.48,44.085 C51.872,42.796 52.145,41.257 52.295,39.495 L49.16,38.651 C48.896,40.469 48.574,42.012 48.2,43.24 L48.2,43.24 Z" id="Fill-103"></path>
            <path d="M28.0214,30.9841 C28.7754,31.6821 29.3894,32.4431 30.2074,33.5881 C32.4774,31.8051 36.2314,27.4021 38.0194,23.1171 L38.0204,40.9281 L41.4184,40.9281 L41.4184,23.2251 C42.9794,26.3751 46.4134,30.9131 49.9894,33.6061 C50.7594,32.6961 51.7274,31.4601 52.1804,30.9371 C45.8284,26.4701 43.1404,22.1931 41.5874,18.7901 L50.7014,18.7901 L50.7014,15.5891 L41.4184,15.5891 L41.4184,8.5441 L50.7014,8.5441 L50.7014,5.3431 L41.4184,5.3431 L41.4184,0.8291 L38.0194,0.8291 L38.0194,5.3431 L29.1254,5.3431 L29.1254,8.5441 L38.0194,8.5441 L38.0194,15.5891 L29.1254,15.5891 L29.1254,18.7901 L37.8154,18.7901 C35.8394,23.3291 32.7014,27.3061 28.0214,30.9841" id="Fill-104"></path>
            <polygon id="Fill-105" points="84.97 27.784 103.814 27.784 103.814 24.518 84.97 24.518"></polygon>
            <path d="M103.8136,15.587 L88.5246,15.587 L88.5246,12.158 L84.9696,12.158 L84.9696,17.325 C84.9696,18.168 85.6636,18.853 86.5196,18.853 L103.8136,18.853 L103.8136,15.587 Z" id="Fill-106"></path>
            <polygon id="Fill-107" points="75.011 28.371 78.564 28.371 78.564 12.158 75.011 12.158"></polygon>
            <polygon id="Fill-108" points="64.443 28.371 67.997 28.371 67.997 12.158 64.443 12.158"></polygon>
            <polygon id="Fill-109" points="107.2297 5.3419 97.6207 5.3419 97.6207 0.8289 94.2217 0.8289 94.2217 5.3419 73.6587 5.3419 73.6587 0.8289 70.2607 0.8289 70.2607 5.3419 60.6557 5.3419 60.6557 8.5449 107.2297 8.5449"></polygon>
            <path d="M91.59,45.423 L100.406,45.423 L100.406,35.961 L91.59,35.961 L91.59,45.423 Z M79.699,45.423 L88.192,45.423 L88.192,35.961 L79.699,35.961 L79.699,45.423 Z M67.48,45.423 L76.301,45.423 L76.301,35.961 L67.48,35.961 L67.48,45.423 Z M103.804,45.423 L103.804,34.223 C103.804,33.38 103.11,32.696 102.254,32.696 L65.632,32.696 C64.776,32.696 64.083,33.38 64.083,34.223 L64.083,45.423 L59.975,45.423 L59.975,48.689 L107.911,48.689 L107.911,45.423 L103.804,45.423 Z" id="Fill-110"></path>
            <polygon id="Fill-111" points="156.532 48.6939 140.193 28.9879 123.572 48.6939 119.312 48.6939 138.075 26.4339 120.587 5.3419 125.078 5.3419 140.334 23.7539 155.855 5.3419 160.137 5.3419 142.452 26.3099 161 48.6939"></polygon>
        </g>
    </g>
</svg>