<?xml version="1.0" encoding="UTF-8"?>
<svg width="139px" height="46px" viewBox="0 0 139 46" version="1.1" xmlns="http://www.w3.org/2000/svg" xmlns:xlink="http://www.w3.org/1999/xlink">
    <!-- Generator: Sketch 39 (31667) - http://www.bohemiancoding.com/sketch -->
    <title>Group 9</title>
    <desc>Created with Sketch.</desc>
    <defs></defs>
    <g id="Page-1" stroke="none" stroke-width="1" fill="none" fill-rule="evenodd">
        <g id="Group-9" fill="#1A1918">
            <path d="M20.4136,28.8518 L20.4136,36.5058 C20.4136,37.3038 21.0606,37.9498 21.8576,37.9498 L28.8936,37.9498 L28.8936,35.1928 L23.1786,35.1928 L23.1786,28.8518 L20.4136,28.8518 Z" id="Fill-60"></path>
            <path d="M5.595,12.865 L11.489,12.865 L11.489,7.337 L5.595,7.337 L5.595,12.865 Z M11.03,21.452 L5.595,21.452 L5.595,15.892 L11.334,15.892 C11.334,16.465 11.369,18.974 11.03,21.452 L11.03,21.452 Z M14.319,15.892 L20.21,15.892 L20.21,21.452 L13.985,21.452 C14.3,18.516 14.319,15.892 14.319,15.892 L14.319,15.892 Z M14.322,12.865 L20.21,12.865 L20.21,7.337 L14.322,7.337 L14.322,12.865 Z M44.736,40.109 C44.299,41.686 43.063,42.331 40.472,42.331 L19.318,42.331 C16.717,42.331 15.796,41.391 15.796,38.74 L15.796,28.852 L12.707,28.852 C12.707,28.852 13.282,26.59 13.627,24.476 L23.179,24.476 L23.179,5.714 C23.179,4.917 22.532,4.271 21.735,4.271 L11.283,4.271 L11.283,0.024 L8.117,0.024 L8.117,4.271 L4.012,4.271 C3.214,4.271 2.568,4.917 2.568,5.714 L2.568,24.476 L10.572,24.476 C9.518,31.404 6.059,37.702 0.186,43.313 C1.503,44.248 2.601,45.77 2.601,45.77 C9.253,39.199 11.58,32.866 12.707,29.049 L12.707,38.976 C12.707,43.855 14.35,45.42 19.469,45.42 L40.665,45.42 C44.846,45.42 46.978,44.071 47.793,40.908 C48.159,39.689 48.413,38.235 48.553,36.57 L45.631,35.772 C45.385,37.49 45.085,38.948 44.736,40.109 L44.736,40.109 Z" id="Fill-61"></path>
            <path d="M25.9335,28.5254 C26.6365,29.1854 27.2085,29.9044 27.9705,30.9864 C30.0865,29.3014 33.5845,25.1404 35.2505,21.0894 L35.2515,37.9234 L38.4175,37.9234 L38.4175,21.1914 C39.8715,24.1694 43.0715,28.4584 46.4035,31.0034 C47.1215,30.1434 48.0235,28.9754 48.4455,28.4814 C42.5275,24.2594 40.0215,20.2164 38.5745,17.0004 L47.0675,17.0004 L47.0675,13.9744 L38.4175,13.9744 L38.4175,7.3164 L47.0675,7.3164 L47.0675,4.2904 L38.4175,4.2904 L38.4175,0.0244 L35.2505,0.0244 L35.2505,4.2904 L26.9615,4.2904 L26.9615,7.3164 L35.2505,7.3164 L35.2505,13.9744 L26.9615,13.9744 L26.9615,17.0004 L35.0595,17.0004 C33.2185,21.2904 30.2945,25.0494 25.9335,28.5254" id="Fill-62"></path>
            <polygon id="Fill-63" points="79 25.501 96.559 25.501 96.559 22.414 79 22.414"></polygon>
            <path d="M96.5593,13.9729 L82.3123,13.9729 L82.3123,10.7319 L79.0003,10.7319 L79.0003,15.6149 C79.0003,16.4129 79.6463,17.0599 80.4443,17.0599 L96.5593,17.0599 L96.5593,13.9729 Z" id="Fill-64"></path>
            <polygon id="Fill-65" points="69.72 26.056 73.031 26.056 73.031 10.732 69.72 10.732"></polygon>
            <polygon id="Fill-66" points="59.873 26.056 63.184 26.056 63.184 10.732 59.873 10.732"></polygon>
            <polygon id="Fill-67" points="99.7425 4.2897 90.7885 4.2897 90.7885 0.0247 87.6215 0.0247 87.6215 4.2897 68.4605 4.2897 68.4605 0.0247 65.2935 0.0247 65.2935 4.2897 56.3435 4.2897 56.3435 7.3167 99.7425 7.3167"></polygon>
            <path d="M85.169,42.172 L93.384,42.172 L93.384,33.229 L85.169,33.229 L85.169,42.172 Z M74.089,42.172 L82.003,42.172 L82.003,33.229 L74.089,33.229 L74.089,42.172 Z M62.703,42.172 L70.922,42.172 L70.922,33.229 L62.703,33.229 L62.703,42.172 Z M96.55,42.172 L96.55,31.587 C96.55,30.79 95.903,30.143 95.106,30.143 L60.98,30.143 C60.183,30.143 59.536,30.79 59.536,31.587 L59.536,42.172 L55.709,42.172 L55.709,45.259 L100.377,45.259 L100.377,42.172 L96.55,42.172 Z" id="Fill-68"></path>
            <path d="M125.4652,45.2592 C121.3542,45.2592 117.5352,43.7552 114.7112,41.0252 L114.6602,40.9762 L116.1712,39.2172 C118.9222,41.6082 122.0412,42.7932 125.4472,42.7932 C128.5752,42.7932 131.3322,41.7802 133.2082,39.9422 C135.0282,38.1522 136.0312,35.6772 136.0312,32.9712 C136.0312,30.1802 134.9692,27.7702 133.0412,26.1872 C131.1442,24.6602 128.6462,23.8532 125.8182,23.8532 C123.4022,23.8532 120.9022,24.5292 118.3882,25.8602 L116.2272,24.1902 L119.1212,7.3122 L136.8832,7.3432 L136.8452,9.7602 L121.3202,9.7222 L118.9932,23.1952 L119.8002,22.8852 C121.7942,21.9572 123.9042,21.4872 126.0722,21.4872 C130.1892,21.4872 133.7682,22.9582 136.1502,25.6292 C137.8032,27.5042 138.7132,30.1232 138.7132,33.0032 C138.7132,36.5492 137.3102,39.8112 134.8642,41.9522 C132.4092,44.0842 129.0722,45.2592 125.4652,45.2592" id="Fill-69"></path>
        </g>
    </g>
</svg>