<?xml version="1.0" encoding="UTF-8"?>
<svg width="183px" height="46px" viewBox="0 0 183 46" version="1.1" xmlns="http://www.w3.org/2000/svg" xmlns:xlink="http://www.w3.org/1999/xlink">
    <!-- Generator: Sketch 39 (31667) - http://www.bohemiancoding.com/sketch -->
    <title>Group 6</title>
    <desc>Created with Sketch.</desc>
    <defs></defs>
    <g id="Page-1" stroke="none" stroke-width="1" fill="none" fill-rule="evenodd">
        <g id="Group-6" fill="#1A1918">
            <path d="M20.3541,28.8518 L20.3541,36.5058 C20.3541,37.3038 21.0011,37.9498 21.7981,37.9498 L28.8341,37.9498 L28.8341,35.1928 L23.1191,35.1928 L23.1191,28.8518 L20.3541,28.8518 Z" id="Fill-91"></path>
            <path d="M5.535,12.865 L11.429,12.865 L11.429,7.337 L5.535,7.337 L5.535,12.865 Z M10.97,21.452 L5.535,21.452 L5.535,15.892 L11.274,15.892 C11.274,16.465 11.31,18.974 10.97,21.452 L10.97,21.452 Z M14.259,15.892 L20.15,15.892 L20.15,21.452 L13.926,21.452 C14.241,18.516 14.259,15.892 14.259,15.892 L14.259,15.892 Z M14.263,12.865 L20.151,12.865 L20.151,7.337 L14.263,7.337 L14.263,12.865 Z M44.677,40.109 C44.24,41.686 43.004,42.331 40.412,42.331 L19.258,42.331 C16.657,42.331 15.736,41.391 15.736,38.74 L15.736,28.852 L12.648,28.852 C12.648,28.852 13.222,26.59 13.568,24.476 L23.119,24.476 L23.119,5.714 C23.119,4.917 22.473,4.271 21.675,4.271 L11.223,4.271 L11.223,0.024 L8.057,0.024 L8.057,4.271 L3.952,4.271 C3.155,4.271 2.508,4.917 2.508,5.714 L2.508,24.476 L10.513,24.476 C9.458,31.404 5.999,37.702 0.127,43.313 C1.444,44.248 2.541,45.77 2.541,45.77 C9.193,39.199 11.521,32.866 12.648,29.049 L12.648,38.976 C12.648,43.855 14.291,45.42 19.409,45.42 L40.606,45.42 C44.787,45.42 46.918,44.071 47.733,40.908 C48.099,39.689 48.353,38.235 48.493,36.57 L45.572,35.772 C45.326,37.49 45.025,38.948 44.677,40.109 L44.677,40.109 Z" id="Fill-92"></path>
            <path d="M25.8738,28.5254 C26.5768,29.1854 27.1488,29.9044 27.9108,30.9864 C30.0268,29.3014 33.5248,25.1404 35.1908,21.0894 L35.1918,37.9234 L38.3578,37.9234 L38.3578,21.1914 C39.8118,24.1694 43.0118,28.4584 46.3438,31.0034 C47.0618,30.1434 47.9648,28.9754 48.3858,28.4814 C42.4678,24.2594 39.9628,20.2164 38.5148,17.0004 L47.0078,17.0004 L47.0078,13.9744 L38.3578,13.9744 L38.3578,7.3164 L47.0078,7.3164 L47.0078,4.2904 L38.3578,4.2904 L38.3578,0.0244 L35.1908,0.0244 L35.1908,4.2904 L26.9018,4.2904 L26.9018,7.3164 L35.1908,7.3164 L35.1908,13.9744 L26.9018,13.9744 L26.9018,17.0004 L34.9998,17.0004 C33.1588,21.2904 30.2348,25.0494 25.8738,28.5254" id="Fill-93"></path>
            <polygon id="Fill-94" points="78.94 25.501 96.499 25.501 96.499 22.414 78.94 22.414"></polygon>
            <path d="M96.4996,13.9728 L82.2526,13.9728 L82.2526,10.7318 L78.9406,10.7318 L78.9406,15.6158 C78.9406,16.4128 79.5866,17.0598 80.3846,17.0598 L96.4996,17.0598 L96.4996,13.9728 Z" id="Fill-95"></path>
            <polygon id="Fill-96" points="69.66 26.056 72.971 26.056 72.971 10.732 69.66 10.732"></polygon>
            <polygon id="Fill-97" points="59.814 26.056 63.125 26.056 63.125 10.732 59.814 10.732"></polygon>
            <polygon id="Fill-98" points="99.6829 4.2897 90.7289 4.2897 90.7289 0.0247 87.5619 0.0247 87.5619 4.2897 68.4009 4.2897 68.4009 0.0247 65.2339 0.0247 65.2339 4.2897 56.2839 4.2897 56.2839 7.3167 99.6829 7.3167"></polygon>
            <path d="M85.109,42.172 L93.324,42.172 L93.324,33.229 L85.109,33.229 L85.109,42.172 Z M74.029,42.172 L81.943,42.172 L81.943,33.229 L74.029,33.229 L74.029,42.172 Z M62.643,42.172 L70.862,42.172 L70.862,33.229 L62.643,33.229 L62.643,42.172 Z M96.49,42.172 L96.49,31.587 C96.49,30.79 95.844,30.143 95.047,30.143 L60.921,30.143 C60.123,30.143 59.477,30.79 59.477,31.587 L59.477,42.172 L55.65,42.172 L55.65,45.259 L100.317,45.259 L100.317,42.172 L96.49,42.172 Z" id="Fill-99"></path>
            <path d="M169.4056,45.2592 C165.2946,45.2592 161.4756,43.7552 158.6516,41.0252 L158.6006,40.9762 L160.1106,39.2172 C162.8626,41.6082 165.9816,42.7932 169.3876,42.7932 C172.5156,42.7932 175.2726,41.7802 177.1486,39.9422 C178.9686,38.1522 179.9716,35.6772 179.9716,32.9712 C179.9716,30.1802 178.9096,27.7702 176.9816,26.1872 C175.0846,24.6602 172.5866,23.8532 169.7586,23.8532 C167.3426,23.8532 164.8426,24.5292 162.3286,25.8602 L160.1676,24.1902 L163.0616,7.3122 L180.8236,7.3432 L180.7856,9.7602 L165.2606,9.7222 L162.9336,23.1952 L163.7406,22.8852 C165.7346,21.9572 167.8446,21.4872 170.0126,21.4872 C174.1296,21.4872 177.7086,22.9582 180.0906,25.6292 C181.7436,27.5042 182.6536,30.1232 182.6536,33.0032 C182.6536,36.5492 181.2506,39.8112 178.8046,41.9522 C176.3496,44.0842 173.0126,45.2592 169.4056,45.2592" id="Fill-100"></path>
            <path d="M128.2621,29.1939 L145.1801,29.1939 L136.8251,9.0589 L136.6691,9.0589 L128.2621,29.1939 Z M151.4071,44.1389 L146.2181,31.6839 L127.2251,31.6839 L122.0351,44.1389 L118.9731,44.1389 L135.0611,5.9459 L138.1751,5.9459 L154.5201,44.1389 L151.4071,44.1389 Z" id="Fill-101"></path>
        </g>
    </g>
</svg>