<?xml version="1.0" encoding="UTF-8"?>
<svg width="234px" height="41px" viewBox="0 0 234 41" version="1.1" xmlns="http://www.w3.org/2000/svg" xmlns:xlink="http://www.w3.org/1999/xlink">
    <!-- Generator: Sketch 39 (31667) - http://www.bohemiancoding.com/sketch -->
    <title>Group 12</title>
    <desc>Created with Sketch.</desc>
    <defs></defs>
    <g id="Page-1" stroke="none" stroke-width="1" fill="none" fill-rule="evenodd">
        <g id="Group-12" fill="#1A1918">
            <path d="M18.0253,25.8775 L18.0253,32.6955 C18.0253,33.4055 18.6013,33.9815 19.3113,33.9815 L25.5783,33.9815 L25.5783,31.5255 L20.4883,31.5255 L20.4883,25.8775 L18.0253,25.8775 Z" id="Fill-134"></path>
            <path d="M4.826,11.638 L10.076,11.638 L10.076,6.715 L4.826,6.715 L4.826,11.638 Z M9.667,19.287 L4.826,19.287 L4.826,14.334 L9.938,14.334 C9.938,14.844 9.97,17.079 9.667,19.287 L9.667,19.287 Z M12.597,14.334 L17.844,14.334 L17.844,19.287 L12.3,19.287 C12.58,16.671 12.597,14.334 12.597,14.334 L12.597,14.334 Z M12.6,11.637 L17.844,11.637 L17.844,6.714 L12.6,6.714 L12.6,11.637 Z M39.69,35.904 C39.3,37.309 38.2,37.884 35.891,37.884 L17.049,37.884 C14.733,37.884 13.912,37.046 13.912,34.685 L13.912,25.877 L11.161,25.877 C11.161,25.877 11.673,23.863 11.981,21.98 L20.488,21.98 L20.488,5.269 C20.488,4.559 19.912,3.983 19.202,3.983 L9.893,3.983 L9.893,0.201 L7.072,0.201 L7.072,3.983 L3.416,3.983 C2.706,3.983 2.13,4.559 2.13,5.269 L2.13,21.98 L9.259,21.98 C8.32,28.151 5.239,33.761 0.009,38.758 C1.182,39.591 2.159,40.947 2.159,40.947 C8.084,35.093 10.157,29.453 11.161,26.054 L11.161,34.895 C11.161,39.24 12.625,40.635 17.184,40.635 L36.063,40.635 C39.788,40.635 41.686,39.434 42.412,36.616 C42.738,35.53 42.964,34.235 43.089,32.752 L40.487,32.041 C40.268,33.572 40,34.87 39.69,35.904 L39.69,35.904 Z" id="Fill-135"></path>
            <path d="M22.9418,25.5867 C23.5678,26.1747 24.0778,26.8157 24.7568,27.7787 C26.6408,26.2777 29.7558,22.5717 31.2398,18.9637 L31.2408,33.9577 L34.0618,33.9577 L34.0618,19.0547 C35.3568,21.7067 38.2068,25.5267 41.1748,27.7937 C41.8138,27.0277 42.6178,25.9877 42.9938,25.5467 C37.7218,21.7867 35.4908,18.1857 34.2018,15.3207 L41.7658,15.3207 L41.7658,12.6257 L34.0618,12.6257 L34.0618,6.6957 L41.7658,6.6957 L41.7658,4.0007 L34.0618,4.0007 L34.0618,0.2007 L31.2398,0.2007 L31.2398,4.0007 L23.8578,4.0007 L23.8578,6.6957 L31.2398,6.6957 L31.2398,12.6257 L23.8578,12.6257 L23.8578,15.3207 L31.0708,15.3207 C29.4308,19.1427 26.8268,22.4907 22.9418,25.5867" id="Fill-136"></path>
            <polygon id="Fill-137" points="70.208 22.893 85.848 22.893 85.848 20.144 70.208 20.144"></polygon>
            <path d="M85.8483,12.6248 L73.1583,12.6248 L73.1583,9.7378 L70.2083,9.7378 L70.2083,14.0878 C70.2083,14.7978 70.7843,15.3738 71.4943,15.3738 L85.8483,15.3738 L85.8483,12.6248 Z" id="Fill-138"></path>
            <polygon id="Fill-139" points="61.943 23.387 64.892 23.387 64.892 9.738 61.943 9.738"></polygon>
            <polygon id="Fill-140" points="53.171 23.387 56.121 23.387 56.121 9.738 53.171 9.738"></polygon>
            <polygon id="Fill-141" points="88.6836 4 80.7086 4 80.7086 0.201 77.8876 0.201 77.8876 4 60.8206 4 60.8206 0.201 57.9996 0.201 57.9996 4 50.0286 4 50.0286 6.696 88.6836 6.696"></polygon>
            <path d="M75.703,37.742 L83.02,37.742 L83.02,29.777 L75.703,29.777 L75.703,37.742 Z M65.834,37.742 L72.883,37.742 L72.883,29.777 L65.834,29.777 L65.834,37.742 Z M55.692,37.742 L63.013,37.742 L63.013,29.777 L55.692,29.777 L55.692,37.742 Z M85.84,37.742 L85.84,28.314 C85.84,27.603 85.264,27.028 84.554,27.028 L54.158,27.028 C53.448,27.028 52.872,27.603 52.872,28.314 L52.872,37.742 L49.463,37.742 L49.463,40.491 L89.249,40.491 L89.249,37.742 L85.84,37.742 Z" id="Fill-142"></path>
            <path d="M222.7198,40.4915 C219.4628,40.4915 216.4358,39.2995 214.1978,37.1355 L214.0868,37.0285 L215.3998,35.4515 L215.5278,35.5595 C217.6548,37.3695 220.0698,38.2865 222.7058,38.2865 C225.1208,38.2865 227.2478,37.5075 228.6928,36.0905 C230.0928,34.7145 230.8638,32.8095 230.8638,30.7255 C230.8638,28.5795 230.0498,26.7285 228.5718,25.5135 C227.1098,24.3375 225.1818,23.7155 222.9958,23.7155 C221.1248,23.7155 219.1878,24.2395 217.2378,25.2735 L217.1898,25.2985 L217.0998,25.2905 L215.3468,23.9115 L217.6278,10.5045 L231.7738,10.5045 L231.7738,12.6405 L219.5608,12.6405 L217.8158,22.8875 L218.2228,22.6975 C219.8028,21.9625 221.4758,21.5895 223.1958,21.5895 C226.4618,21.5895 229.3028,22.7585 231.1958,24.8815 C232.5128,26.3755 233.2378,28.4595 233.2378,30.7505 C233.2378,33.5685 232.1218,36.1615 230.1748,37.8665 C228.2258,39.5595 225.5788,40.4915 222.7198,40.4915" id="Fill-143"></path>
            <path d="M104.7017,40.4915 L104.7017,24.0825 C104.7017,20.2515 106.0557,17.0335 108.6167,14.7775 C110.8857,12.7765 113.9387,11.6755 117.2137,11.6755 C120.4887,11.6755 123.5417,12.7765 125.8107,14.7775 C128.3727,17.0335 129.7257,20.2515 129.7257,24.0825 L129.7257,40.4885 L127.4117,40.4885 L127.4067,24.3645 C127.4067,19.1295 123.8477,13.8295 117.0457,13.8295 C110.1507,13.8295 107.0107,19.2905 107.0107,24.3645 L107.0107,40.4915 L104.7017,40.4915 Z" id="Fill-144"></path>
            <path d="M168.3922,28.0818 L168.3922,18.0598 L173.6812,18.0598 L173.6812,15.7008 L168.3922,15.7008 L168.3922,10.4998 L166.0832,10.4998 L166.0832,15.7008 L162.8252,15.7008 L162.8252,18.0598 L166.0832,18.0598 L166.0832,28.3638 C166.0832,32.1938 167.4372,35.4118 169.9982,37.6688 C171.6142,39.0938 173.6322,40.0518 175.8392,40.4918 L175.8392,38.3238 C170.7462,37.1388 168.3922,32.4688 168.3922,28.0818" id="Fill-145"></path>
            <path d="M156.7375,26.0808 C156.7375,36.2758 149.8635,38.2408 146.2755,38.2408 C142.6875,38.2408 135.8135,36.2758 135.8135,26.0808 L135.8135,26.0828 C135.8135,15.8888 142.6865,13.9228 146.2755,13.9228 L146.2755,13.9228 C149.8645,13.9228 156.7375,15.8888 156.7375,26.0828 L156.7375,26.0808 Z M146.2765,11.6728 L146.2755,11.6728 C141.9145,11.6728 133.5605,14.0018 133.5605,26.0828 L133.5615,26.0808 C133.5615,38.1618 141.9145,40.4918 146.2755,40.4918 C150.6365,40.4918 158.9905,38.1618 158.9905,26.0808 L158.9905,26.0828 C158.9905,14.0018 150.6365,11.6728 146.2765,11.6728 L146.2765,11.6728 Z" id="Fill-146"></path>
            <path d="M192.3905,13.9227 L192.3915,13.9227 C195.7975,13.9227 202.1605,15.6997 202.7975,24.6027 L181.9845,24.6027 C182.6205,15.6997 188.9835,13.9227 192.3905,13.9227 M192.3915,11.6727 L192.3905,11.6727 C188.0295,11.6727 179.6755,14.0017 179.6755,26.0837 L179.6765,26.0807 C179.6765,38.1617 188.0295,40.4917 192.3905,40.4917 C195.9115,40.4917 202.0335,38.9697 204.2615,32.0257 L202.0785,31.3367 C200.1845,36.9897 195.2475,38.2407 192.3905,38.2407 C188.9085,38.2407 182.3335,36.3887 181.9475,26.9617 L205.0865,26.9617 C205.0965,26.6727 205.1055,26.3817 205.1055,26.0807 L205.1055,26.0837 C205.1055,14.0017 196.7525,11.6727 192.3915,11.6727" id="Fill-147"></path>
        </g>
    </g>
</svg>