<?xml version="1.0" encoding="UTF-8"?>
<svg width="163px" height="46px" viewBox="0 0 163 46" version="1.1" xmlns="http://www.w3.org/2000/svg" xmlns:xlink="http://www.w3.org/1999/xlink">
    <!-- Generator: Sketch 39 (31667) - http://www.bohemiancoding.com/sketch -->
    <title>Group 8</title>
    <desc>Created with Sketch.</desc>
    <defs></defs>
    <g id="Page-1" stroke="none" stroke-width="1" fill="none" fill-rule="evenodd">
        <g id="Group-8" fill="#1A1918">
            <path d="M20.4136,29.1198 L20.4136,36.7738 C20.4136,37.5718 21.0606,38.2178 21.8576,38.2178 L28.8936,38.2178 L28.8936,35.4608 L23.1786,35.4608 L23.1786,29.1198 L20.4136,29.1198 Z" id="Fill-49"></path>
            <path d="M5.595,13.133 L11.489,13.133 L11.489,7.605 L5.595,7.605 L5.595,13.133 Z M11.03,21.72 L5.595,21.72 L5.595,16.16 L11.334,16.16 C11.334,16.733 11.369,19.242 11.03,21.72 L11.03,21.72 Z M14.319,16.16 L20.21,16.16 L20.21,21.72 L13.985,21.72 C14.3,18.784 14.319,16.16 14.319,16.16 L14.319,16.16 Z M14.322,13.133 L20.21,13.133 L20.21,7.605 L14.322,7.605 L14.322,13.133 Z M44.736,40.377 C44.299,41.954 43.063,42.599 40.472,42.599 L19.318,42.599 C16.717,42.599 15.796,41.659 15.796,39.008 L15.796,29.12 L12.707,29.12 C12.707,29.12 13.282,26.858 13.627,24.744 L23.179,24.744 L23.179,5.982 C23.179,5.185 22.532,4.538 21.735,4.538 L11.283,4.538 L11.283,0.292 L8.117,0.292 L8.117,4.538 L4.012,4.538 C3.214,4.538 2.568,5.185 2.568,5.982 L2.568,24.744 L10.572,24.744 C9.518,31.672 6.059,37.97 0.186,43.581 C1.503,44.516 2.601,46.038 2.601,46.038 C9.253,39.467 11.58,33.134 12.707,29.317 L12.707,39.244 C12.707,44.123 14.35,45.688 19.469,45.688 L40.665,45.688 C44.846,45.688 46.978,44.339 47.793,41.176 C48.159,39.957 48.413,38.503 48.553,36.838 L45.631,36.04 C45.385,37.758 45.085,39.216 44.736,40.377 L44.736,40.377 Z" id="Fill-50"></path>
            <path d="M25.9335,28.7934 C26.6365,29.4534 27.2085,30.1724 27.9705,31.2544 C30.0865,29.5694 33.5845,25.4084 35.2505,21.3574 L35.2515,38.1914 L38.4175,38.1914 L38.4175,21.4594 C39.8715,24.4374 43.0715,28.7264 46.4035,31.2714 C47.1215,30.4114 48.0235,29.2434 48.4455,28.7494 C42.5275,24.5274 40.0215,20.4844 38.5745,17.2684 L47.0675,17.2684 L47.0675,14.2424 L38.4175,14.2424 L38.4175,7.5844 L47.0675,7.5844 L47.0675,4.5584 L38.4175,4.5584 L38.4175,0.2924 L35.2505,0.2924 L35.2505,4.5584 L26.9615,4.5584 L26.9615,7.5844 L35.2505,7.5844 L35.2505,14.2424 L26.9615,14.2424 L26.9615,17.2684 L35.0595,17.2684 C33.2185,21.5584 30.2945,25.3174 25.9335,28.7934" id="Fill-51"></path>
            <polygon id="Fill-52" points="79 25.769 96.559 25.769 96.559 22.682 79 22.682"></polygon>
            <path d="M96.5593,14.2408 L82.3123,14.2408 L82.3123,10.9998 L79.0003,10.9998 L79.0003,15.8828 C79.0003,16.6808 79.6463,17.3278 80.4443,17.3278 L96.5593,17.3278 L96.5593,14.2408 Z" id="Fill-53"></path>
            <polygon id="Fill-54" points="69.72 26.324 73.031 26.324 73.031 11 69.72 11"></polygon>
            <polygon id="Fill-55" points="59.873 26.324 63.184 26.324 63.184 11 59.873 11"></polygon>
            <polygon id="Fill-56" points="99.7425 4.5577 90.7885 4.5577 90.7885 0.2927 87.6215 0.2927 87.6215 4.5577 68.4605 4.5577 68.4605 0.2927 65.2935 0.2927 65.2935 4.5577 56.3435 4.5577 56.3435 7.5847 99.7425 7.5847"></polygon>
            <path d="M85.169,42.44 L93.384,42.44 L93.384,33.497 L85.169,33.497 L85.169,42.44 Z M74.089,42.44 L82.003,42.44 L82.003,33.497 L74.089,33.497 L74.089,42.44 Z M62.703,42.44 L70.922,42.44 L70.922,33.497 L62.703,33.497 L62.703,42.44 Z M96.55,42.44 L96.55,31.855 C96.55,31.057 95.903,30.411 95.106,30.411 L60.98,30.411 C60.183,30.411 59.536,31.057 59.536,31.855 L59.536,42.44 L55.709,42.44 L55.709,45.527 L100.377,45.527 L100.377,42.44 L96.55,42.44 Z" id="Fill-57"></path>
            <path d="M121.4652,45.5271 C117.3542,45.5271 113.5352,44.0231 110.7112,41.2931 L110.6602,41.2441 L112.1712,39.4851 C114.9222,41.8761 118.0412,43.0611 121.4472,43.0611 C124.5752,43.0611 127.3322,42.0481 129.2082,40.2101 C131.0282,38.4201 132.0312,35.9451 132.0312,33.2391 C132.0312,30.4481 130.9692,28.0381 129.0412,26.4551 C127.1442,24.9281 124.6462,24.1211 121.8182,24.1211 C119.4022,24.1211 116.9022,24.7971 114.3882,26.1281 L112.2272,24.4581 L115.1212,7.5801 L132.8832,7.6111 L132.8452,10.0281 L117.3202,9.9901 L114.9932,23.4631 L115.8002,23.1531 C117.7942,22.2251 119.9042,21.7551 122.0722,21.7551 C126.1892,21.7551 129.7682,23.2261 132.1502,25.8971 C133.8032,27.7721 134.7132,30.3911 134.7132,33.2711 C134.7132,36.8171 133.3102,40.0791 130.8642,42.2201 C128.4092,44.3521 125.0722,45.5271 121.4652,45.5271" id="Fill-58"></path>
            <path d="M150.8015,43.1109 C154.3705,43.1109 159.5185,41.8469 159.5185,37.2549 C159.5185,28.8169 142.2135,32.9249 142.2135,22.2179 C142.2135,16.4939 147.1575,14.0029 152.5305,14.0029 C155.8945,14.0029 158.9055,14.9879 161.2295,16.3449 L160.0575,18.2779 C158.0135,17.1819 155.5045,16.4189 152.7535,16.4189 C148.9805,16.4189 144.7785,17.8499 144.7785,22.0879 C144.7785,30.7129 162.0845,26.4379 162.0845,37.0139 C162.0845,42.6649 157.1585,45.5269 151.2105,45.5269 C146.8055,45.5269 143.2175,43.9479 140.8575,42.2929 L142.1955,40.4529 C144.8165,42.0139 147.4745,43.1109 150.8015,43.1109" id="Fill-59"></path>
        </g>
    </g>
</svg>