<?xml version="1.0" encoding="utf-8"?>
<!-- Generator: Adobe Illustrator 17.0.0, SVG Export Plug-In . SVG Version: 6.00 Build 0)  -->
<!DOCTYPE svg PUBLIC "-//W3C//DTD SVG 1.1//EN" "http://www.w3.org/Graphics/SVG/1.1/DTD/svg11.dtd">
<svg version="1.1" id="图层_1" xmlns="http://www.w3.org/2000/svg" xmlns:xlink="http://www.w3.org/1999/xlink" x="0px" y="0px"
	 width="87.256px" height="29.142px" viewBox="0 0 87.256 29.142" enable-background="new 0 0 87.256 29.142" xml:space="preserve">
<g>
	<path d="M12.886,18.364v4.876c0,0.508,0.412,0.92,0.92,0.92h4.482v-1.756h-3.64v-4.039H12.886z"/>
	<path d="M28.38,25.536c-0.278,1.004-1.066,1.416-2.717,1.416H12.187c-1.657,0-2.243-0.599-2.243-2.288v-6.299H7.976
		c0,0,0.366-1.441,0.586-2.788h6.085V3.625c0-0.508-0.412-0.92-0.92-0.92H7.069V0H5.052v2.705H2.437c-0.508,0-0.92,0.412-0.92,0.92
		v11.952h5.099c-0.672,4.414-2.875,8.426-6.616,12c0.839,0.596,1.538,1.565,1.538,1.565c4.238-4.187,5.72-8.221,6.438-10.652v6.323
		c0,3.108,1.047,4.106,4.307,4.106h13.503c2.663,0,4.021-0.859,4.541-2.875c0.233-0.776,0.395-1.703,0.484-2.763l-1.861-0.508
		C28.794,23.867,28.602,24.796,28.38,25.536 M9.005,4.658h3.751V8.18H9.005V4.658z M9.003,10.108h3.753v3.542H8.791
		C8.991,11.78,9.003,10.108,9.003,10.108 M6.908,13.65H3.446v-3.542h3.656C7.102,10.473,7.124,12.072,6.908,13.65 M7.2,8.18H3.446
		V4.658H7.2V8.18z"/>
	<path d="M16.402,18.156c0.448,0.42,0.812,0.879,1.298,1.568c1.347-1.074,3.576-3.724,4.637-6.304l0.001,10.724h2.017V13.485
		c0.926,1.897,2.965,4.629,5.087,6.25c0.457-0.548,1.032-1.292,1.301-1.607c-3.77-2.69-5.366-5.265-6.288-7.314h5.41V8.887h-5.511
		V4.645h5.511V2.718h-5.511V0h-2.018v2.718h-5.28v1.928h5.28v4.242h-5.28v1.927h5.159C21.043,13.547,19.18,15.942,16.402,18.156"/>
	<rect x="38.023" y="6.821" width="2.11" height="9.762"/>
	<rect x="44.296" y="6.821" width="2.109" height="9.762"/>
	<rect x="50.208" y="14.263" width="11.186" height="1.966"/>
	<path d="M61.394,8.886h-9.076V6.821h-2.11v3.111c0,0.508,0.412,0.92,0.92,0.92h10.266V8.886z"/>
	<polygon points="63.422,2.717 57.717,2.717 57.717,0 55.7,0 55.7,2.717 43.493,2.717 43.493,0 41.476,0 41.476,2.717 35.775,2.717 
		35.775,4.646 63.422,4.646 	"/>
	<path d="M61.388,26.85v-6.743c0-0.508-0.412-0.92-0.92-0.92h-21.74c-0.508,0-0.92,0.412-0.92,0.92v6.743H35.37v1.966h28.455V26.85
		H61.388z M45.062,26.85h-5.236v-5.697h5.236V26.85z M52.12,26.85h-5.042v-5.697h5.042V26.85z M59.371,26.85h-5.233v-5.697h5.233
		V26.85z"/>
	<path d="M78.552,28.81c-5.018-0.175-7.96-3.873-8.071-10.145c-0.005-0.074,0.003-0.827,0.014-1.533
		c0-2.843,0.522-8.112,4.019-11.469c2.151-2.066,4.71-3.001,8.052-2.943c0.345,0.006,0.721,0.025,1.118,0.056l-0.11,1.539
		c-1.409-0.006-2.545,0.065-3.206,0.201c-1.851,0.302-3.396,1.068-4.719,2.339c-2.522,2.422-3.271,6.134-3.455,8.822l-0.035,0.514
		l0.361-0.412c1.629-1.862,3.909-2.822,6.592-2.775l0.195,0.005c4.911,0.171,8.103,3.381,7.943,7.987
		c-0.163,4.688-3.66,7.903-8.504,7.818L78.552,28.81z M79.126,14.539c-3.936-0.069-6.768,2.278-6.888,5.705
		c-0.09,2.584,1.023,4.217,1.973,5.131c1.196,1.151,2.851,1.846,4.542,1.905l0.146,0.004c3.825,0.067,6.589-2.533,6.721-6.322
		c0.131-3.759-2.35-6.278-6.321-6.418L79.126,14.539z"/>
</g>
</svg>
