<?xml version="1.0" encoding="UTF-8"?>
<svg width="131px" height="42px" viewBox="0 0 131 42" version="1.1" xmlns="http://www.w3.org/2000/svg" xmlns:xlink="http://www.w3.org/1999/xlink">
    <!-- Generator: Sketch 39 (31667) - http://www.bohemiancoding.com/sketch -->
    <title>Group 5</title>
    <desc>Created with Sketch.</desc>
    <defs></defs>
    <g id="Page-1" stroke="none" stroke-width="1" fill="none" fill-rule="evenodd">
        <g id="Group-5" fill="#1A1918">
            <polygon id="Fill-43" points="3.4331 41.4334 3.4331 41.4334 3.4331 4.4294 23.3581 41.4334 25.8451 41.4334 45.4201 4.4294 45.7681 4.4294 45.7681 41.4334 48.2651 41.4334 48.2651 0.5194 44.3491 0.5194 24.4231 38.2314 4.8571 0.5194 0.9431 0.5194 0.9431 41.4334"></polygon>
            <polygon id="Fill-44" points="54.3613 0.519 70.9583 18.759 72.9733 16.926 57.1763 0.519"></polygon>
            <polygon id="Fill-45" points="95.2747 0.5175 78.6777 18.7575 76.6607 16.9245 92.4597 0.5175"></polygon>
            <polygon id="Fill-46" points="54.3613 41.4352 70.9583 23.1962 72.9733 25.0292 57.1763 41.4352"></polygon>
            <polygon id="Fill-47" points="95.2747 41.4352 78.6777 23.1962 76.6607 25.0292 92.4597 41.4352"></polygon>
            <path d="M104.2033,20.5039 C104.0743,22.7929 104.0743,24.4019 104.0743,26.1059 C104.0743,32.8269 105.4103,39.6979 115.3233,39.6979 C124.3673,39.6979 127.8913,36.6989 127.8913,28.9989 C127.8913,24.9029 126.8413,22.2799 124.5863,20.7459 C122.6643,19.4359 119.9643,18.9019 115.2683,18.9019 C113.1953,18.9019 109.7663,19.2219 104.7843,19.8779 L104.2343,19.9509 L104.2033,20.5039 Z M115.4883,41.4349 C110.2113,41.4349 106.6383,40.0369 104.5673,37.1609 C102.7463,34.6309 101.9343,30.9509 101.9343,25.2279 C101.9343,14.8959 103.1803,9.2479 106.2343,5.7329 C109.4053,2.0839 114.8223,0.5259 124.3473,0.5259 C124.6643,0.5259 125.0493,0.5259 126.6273,0.5519 L126.6903,0.5529 L126.8653,2.2299 L124.7343,2.2869 C114.7233,2.5379 105.2673,2.7759 104.4243,17.4199 L104.3713,18.2349 L105.2123,18.1299 C108.6653,17.6909 113.4473,17.2209 116.5123,17.2209 C124.8573,17.2209 130.0293,19.2059 130.0293,29.0899 C130.0293,33.8259 128.7603,37.0609 126.1503,38.9779 C123.8663,40.6539 120.4783,41.4349 115.4883,41.4349 L115.4883,41.4349 Z" id="Fill-48"></path>
        </g>
    </g>
</svg>