<?xml version="1.0" encoding="utf-8"?>
<!-- Generator: Adobe Illustrator 17.0.0, SVG Export Plug-In . SVG Version: 6.00 Build 0)  -->
<!DOCTYPE svg PUBLIC "-//W3C//DTD SVG 1.1//EN" "http://www.w3.org/Graphics/SVG/1.1/DTD/svg11.dtd">
<svg version="1.1" id="图层_1" xmlns="http://www.w3.org/2000/svg" xmlns:xlink="http://www.w3.org/1999/xlink" x="0px" y="0px"
	 width="401.266px" height="71.556px" viewBox="0 0 401.266 71.556" enable-background="new 0 0 401.266 71.556"
	 xml:space="preserve">
<g id="XMLID_267_">
	<g id="XMLID_279_">
		<path id="XMLID_287_" d="M31.64,45.092v11.973c0,1.247,1.011,2.258,2.259,2.258h11.005V55.01h-8.938v-9.918H31.64z
			"/>
		<path id="XMLID_281_"  d="M69.685,62.7c-0.684,2.466-2.617,3.476-6.67,3.476h-33.09
			c-4.068,0-5.508-1.471-5.508-5.618V45.092h-4.831c0,0,0.898-3.538,1.439-6.844h14.94V8.9c0-1.247-1.011-2.258-2.259-2.258H17.357
			V0h-4.953v6.642H5.984c-1.247,0-2.259,1.011-2.259,2.258v29.347h12.52C14.596,49.084,9.186,58.936,0,67.712
			c2.06,1.462,3.776,3.844,3.776,3.844c10.406-10.28,14.046-20.185,15.809-26.155v15.526c0,7.632,2.57,10.081,10.576,10.081h33.156
			c6.54,0,9.874-2.11,11.149-7.059c0.572-1.906,0.97-4.181,1.188-6.785l-4.57-1.248C70.7,58.604,70.23,60.885,69.685,62.7z
			 M22.111,11.438h9.209v8.646h-9.209V11.438z M22.106,24.82h9.215v8.697h-9.736C22.077,28.924,22.106,24.82,22.106,24.82z
			 M16.961,33.517H8.46V24.82h8.977C17.437,25.716,17.493,29.641,16.961,33.517z M17.68,20.085H8.46v-8.646h9.219V20.085z"/>
		<path id="XMLID_280_"  d="M40.274,44.581c1.099,1.032,1.994,2.158,3.187,3.849c3.308-2.636,8.78-9.145,11.386-15.48
			l0.001,26.331h4.953V33.11c2.275,4.658,7.28,11.366,12.492,15.347c1.123-1.346,2.535-3.173,3.194-3.946
			c-9.258-6.604-13.176-12.927-15.44-17.958h13.285v-4.733H59.801V11.406h13.531V6.673H59.801V0h-4.954v6.673H41.882v4.733h12.965
			v10.415H41.882v4.733h12.666C51.669,33.264,47.096,39.144,40.274,44.581z"/>
	</g>
	<g id="XMLID_268_">
		<rect id="XMLID_278_" x="93.361" y="16.749" width="5.18" height="23.969"/>
		<rect id="XMLID_277_" x="108.764" y="16.749" width="5.179" height="23.969"/>
		<rect id="XMLID_276_" x="123.28" y="35.022" width="27.466" height="4.828"/>
		<path id="XMLID_275_" d="M150.746,21.818h-22.285v-5.069h-5.181v7.638c0,1.247,1.011,2.259,2.259,2.259h25.208
			V21.818z"/>
		<polygon id="XMLID_274_" points="155.725,6.672 141.72,6.672 141.72,0 136.765,0 136.765,6.672 106.794,6.672
			106.794,0 101.841,0 101.841,6.672 87.841,6.672 87.841,11.407 155.725,11.407 		"/>
		<path id="XMLID_269_" d="M150.732,65.928V49.37c0-1.247-1.011-2.259-2.259-2.259h-53.38
			c-1.247,0-2.258,1.011-2.258,2.259v16.558h-5.987v4.828h69.869v-4.828H150.732z M110.645,65.928H97.788V51.939h12.857V65.928z
			 M127.977,65.928h-12.379V51.939h12.379V65.928z M145.779,65.928h-12.85V51.939h12.85V65.928z"/>
	</g>
</g>
<g id="XMLID_160_">
	<g id="XMLID_263_">
		<path id="XMLID_264_" d="M383.589,36.164l-0.424-0.003c-5.865,0-10.811,2.185-14.303,6.32l-0.498,0.588
			l0.035-0.698c0.296-5.813,1.771-13.859,7.12-19.176c2.803-2.787,6.087-4.492,10.081-5.215c1.441-0.321,3.978-0.518,7.051-0.555
			l0.194-3.615c-0.885-0.058-1.747-0.089-2.577-0.089c-7.291,0-12.837,2.138-17.455,6.731c-7.494,7.45-8.434,18.943-8.327,25.133
			c0.003,1.241,0.012,3.148,0.028,3.33c0.48,13.687,7.053,21.648,18.033,21.84l0.421,0.003c10.592,0,18.115-7.164,18.294-17.421
			C401.438,43.252,394.336,36.352,383.589,36.164z M383.245,67.147l-0.316-0.003c-7.037-0.124-14.427-5.378-14.261-14.872
			c0.128-7.359,6.125-12.497,14.584-12.497l0.373,0.003c8.534,0.15,13.958,5.464,13.817,13.538
			C397.301,61.46,391.462,67.147,383.245,67.147z"/>
	</g>
	<path id="XMLID_262_" d="M293.711,53.856V27.424h10.562v-4.225h-10.562V9.468h-4.225v13.731h-5.281v4.225h5.281
		v26.432c0,8.962,7.018,16.297,15.844,16.846v-4.225C298.834,65.938,293.711,60.489,293.711,53.856z"/>
	<path id="XMLID_261_" d="M181.11,70.756V41.939c0-6.727,2.377-12.378,6.875-16.342
		c3.985-3.513,9.347-5.448,15.098-5.448c5.751,0,11.113,1.934,15.098,5.448c4.498,3.963,6.875,9.615,6.875,16.342v28.811h-4.064
		l-0.01-28.317c0-9.194-6.249-18.5-18.194-18.5c-12.109,0-17.624,9.59-17.624,18.5v28.322H181.11z"/>
	<path id="XMLID_258_" d="M332.755,20.146h-0.002c-7.595,0-22.143,4.091-22.143,25.308l0.001-0.005
		c0,21.217,14.548,25.307,22.143,25.307c6.132,0,16.793-2.673,20.673-14.867l-3.802-1.211c-3.3,9.929-11.896,12.126-16.872,12.126
		c-6.065,0-17.516-3.253-18.187-19.809h40.296c0.018-0.508,0.033-1.018,0.033-1.547l0.001,0.005
		C354.898,24.237,340.35,20.146,332.755,20.146z M332.754,24.097h0.001c5.933,0,17.014,3.121,18.122,18.755h-36.246
		C315.74,27.218,326.821,24.097,332.754,24.097z"/>
	<g id="XMLID_161_">
		<path id="XMLID_162_" d="M255.688,20.146h-0.002c-7.607,0-22.18,4.091-22.18,25.308l0.001-0.005
			c0,21.217,14.573,25.307,22.18,25.307c7.607,0,22.18-4.091,22.18-25.307l0.001,0.005
			C277.868,24.237,263.295,20.146,255.688,20.146z M273.937,45.449c0,17.903-11.991,21.355-18.25,21.355
			c-6.26,0-18.251-3.452-18.251-21.355l-0.001,0.004c0-17.903,11.991-21.355,18.25-21.355h0.001c6.26,0,18.251,3.452,18.251,21.355
			L273.937,45.449z"/>
	</g>
</g>
</svg>
