<?xml version="1.0" encoding="utf-8"?>
<!-- Generator: Adobe Illustrator 17.0.0, SVG Export Plug-In . SVG Version: 6.00 Build 0)  -->
<!DOCTYPE svg PUBLIC "-//W3C//DTD SVG 1.1//EN" "http://www.w3.org/Graphics/SVG/1.1/DTD/svg11.dtd">
<svg version="1.1" id="图层_1" xmlns="http://www.w3.org/2000/svg" xmlns:xlink="http://www.w3.org/1999/xlink" x="0px" y="0px"
	 width="656.596px" height="84.924px" viewBox="0 0 656.596 84.924" enable-background="new 0 0 656.596 84.924"
	 xml:space="preserve">
<g>
	<path d="M52.472,4.426C46.924,1.365,39.288,0,27.713,0C18.828,0,9.255,0.649,0.758,1.826L0,1.931v81.49h9.254v-33.17
		c3.743,0.167,14.396,0.623,19.497,0.623c11.351,0,19.152-1.779,24.552-5.114c6.576-4.062,9.773-10.844,9.773-20.733
		C63.076,15.1,59.607,8.361,52.472,4.426z M54.128,25.027c0,13.116-7.41,17.858-26.415,17.858c-5.2,0-10.533-0.06-18.459-0.763
		V9.049c6.229-0.717,13.078-1.126,18.92-1.126c9.648,0,16.004,1.013,20.005,3.822C52.003,14.43,54.128,18.65,54.128,25.027z"/>
	<path d="M264.226,0c-13.372,0-22.044,3.206-27.291,10.09c-4.931,6.469-7.13,16.438-7.13,32.325s2.199,25.856,7.13,32.325
		c5.247,6.884,13.919,10.09,27.291,10.09c13.337,0,21.989-3.206,27.227-10.091c4.924-6.472,7.12-16.441,7.12-32.324
		s-2.196-25.852-7.12-32.324C286.215,3.206,277.563,0,264.226,0z M264.226,76.478c-23.635,0-24.835-12.793-24.835-34.063
		S240.819,8.26,264.454,8.26c14.545,0,18.879,5.189,21.045,9.206c3.259,6.044,3.525,14.875,3.525,24.95
		c0,10.056-0.265,18.872-3.525,24.924C283.329,71.366,278.764,76.478,264.226,76.478z"/>
	<path d="M178.531,24.503C178.531,2.969,161.523,0,143.143,0c-8.84,0-18.407,0.696-26.94,1.864l-0.764,0.121v81.435h9.3V48.943
		c4.875,0.215,14.665,0.584,19.441,0.584h1.548l21.517,33.894h10.91l-22.444-34.564C171.271,46.677,178.531,38.909,178.531,24.503z
		 M169.193,24.469c0,12.574-7.304,17.473-26.05,17.473c-5.18,0-10.495-0.057-18.404-0.725V9.042
		c6.437-0.713,13.269-1.12,18.865-1.12C162.257,7.922,169.193,12.136,169.193,24.469z"/>
	<path d="M408.679,58.905c0,20.888-11.998,26.019-30.356,26.019c-23.236,0-28.476-12.937-28.476-33.5
		c0-37.981,8.276-49.907,45.462-49.907c0.831,0,1.843,0,6.758,0.108l0.751,7.571c-19.238,0.8-42.093-1.282-43.141,26.363
		c6.468-0.831,14.744-1.662,20.599-1.662C397.91,33.898,408.679,38.704,408.679,58.905z M359.098,42.968
		c-0.289,3.903-0.289,6.975-0.289,10.191c0,12.251,2.241,24.176,19.189,24.176c16.334,0,21.719-5.132,21.719-18.611
		c0-14.708-7.553-17.527-21.827-17.527C372.938,41.198,364.916,42.173,359.098,42.968z"/>
	<path d="M454.114,84.83h-9.162V2.009c7.343-1.211,16.469-1.961,25.382-1.961c17.753,0,32.298,3.565,32.298,25.026
		c0,20.961-12.941,25.524-31.336,25.524c-4.563,0-13.083-0.357-17.182-0.57V84.83z M454.114,42.363
		c6.631,0.712,11.407,0.748,16.22,0.748c14.83,0,23.172-3.564,23.172-18.037c0-12.478-6.025-17.539-22.744-17.539
		c-4.669,0-10.73,0.321-16.647,1.105V42.363z"/>
	<path d="M543.854,20.475h8.663v39.676c0,11.978,2.139,17.397,18.038,17.397c5.205,0,13.083-1.32,17.04-3.102
		c0.178-2.994,0.249-6.951,0.249-9.946V20.475h8.627v48.196c0,3.707-0.107,7.343-0.321,10.837
		c-7.201,3.137-17.183,5.311-28.519,5.311c-21.603,0-23.778-10.231-23.778-23.1V20.475z"/>
	<path d="M620.984,35.804c0,8.484,6.523,9.411,15.649,12.227c12.762,3.957,19.963,7.201,19.963,18.93
		c0,14.01-10.41,17.859-24.241,17.859c-6.809,0-13.511-0.642-20.213-2.104l0.857-6.809c5.204,0.856,11.051,1.497,16.326,1.497
		c7.451,0,18.431,0,18.431-9.946c0-8.057-5.633-9.483-15.543-12.442c-9.982-2.994-19.891-5.347-19.891-18.394
		c0-13.261,9.162-17.004,21.959-17.004c7.985,0,13.903,0.712,20.675,2.103l-0.856,6.702c-4.741-0.82-10.088-1.533-15.899-1.533
		C630.93,26.891,620.984,27.069,620.984,35.804z"/>
	<rect x="516.873" y="0.048" width="8.663" height="84.717"/>
</g>
</svg>
