<?xml version="1.0" encoding="UTF-8"?>
<svg width="233px" height="43px" viewBox="0 0 233 43" version="1.1" xmlns="http://www.w3.org/2000/svg" xmlns:xlink="http://www.w3.org/1999/xlink">
    <!-- Generator: Sketch 39 (31667) - http://www.bohemiancoding.com/sketch -->
    <title>Group 3</title>
    <desc>Created with Sketch.</desc>
    <defs></defs>
    <g id="Page-1" stroke="none" stroke-width="1" fill="none" fill-rule="evenodd">
        <g id="Group-3" fill="#1A1918">
            <path d="M214.1086,14.281 C214.1086,19.14 216.2136,19.978 222.5756,21.798 C228.5576,23.508 232.8306,25.913 232.8306,32.417 C232.8306,40.014 228.1456,42.799 219.7426,42.799 C215.8016,42.799 213.1906,42.498 210.3106,41.929 L210.7066,38.605 C213.6186,39.033 216.8946,39.302 219.5846,39.302 C224.8546,39.302 228.6046,38.099 228.6046,32.607 C228.6046,28.018 225.4716,26.768 220.4396,25.248 C213.9036,23.286 210.0416,21.577 210.0416,14.993 C210.0416,7.587 214.5516,5.165 222.6226,5.165 C225.9306,5.165 229.3176,5.545 231.9446,6.004 L231.5806,9.264 C229.3326,8.932 226.7216,8.631 224.2376,8.631 C218.8726,8.631 214.1086,9.343 214.1086,14.281" id="Fill-17"></path>
            <path d="M26.9466,13.206 C26.9466,19.686 23.2856,22.029 13.8956,22.029 C11.3266,22.029 8.6916,22 4.7756,21.652 L4.7756,5.312 C7.8526,4.957 11.2376,4.756 14.1236,4.756 C18.8906,4.756 22.0306,5.256 24.0076,6.644 C25.8966,7.97 26.9466,10.055 26.9466,13.206 M26.1286,3.027 C23.3876,1.515 19.6146,0.841 13.8956,0.841 C9.5056,0.841 4.7766,1.161 0.5776,1.743 L0.2036,1.795 L0.2036,42.057 L4.7756,42.057 L4.7756,25.668 C6.6246,25.751 11.8886,25.976 14.4086,25.976 C20.0166,25.976 23.8706,25.097 26.5386,23.45 C29.7886,21.443 31.3676,18.092 31.3676,13.206 C31.3676,8.301 29.6536,4.972 26.1286,3.027" id="Fill-19"></path>
            <path d="M130.75,38.6261 C119.073,38.6261 118.48,32.3051 118.48,21.7971 C118.48,11.2881 119.185,4.9221 130.863,4.9221 C138.049,4.9221 140.19,7.4861 141.26,9.4701 C142.871,12.4561 143.002,16.8191 143.002,21.7971 C143.002,26.7651 142.871,31.1211 141.26,34.1111 C140.188,36.1011 137.933,38.6261 130.75,38.6261 M130.75,0.8411 C124.143,0.8411 119.859,2.4251 117.266,5.8261 C114.83,9.0221 113.743,13.9481 113.743,21.7971 C113.743,29.6461 114.83,34.5711 117.266,37.7681 C119.859,41.1691 124.143,42.7531 130.75,42.7531 C137.34,42.7531 141.614,41.1681 144.202,37.7671 C146.635,34.5701 147.72,29.6441 147.72,21.7971 C147.72,13.9491 146.635,9.0241 144.202,5.8261 C141.614,2.4251 137.34,0.8411 130.75,0.8411" id="Fill-21"></path>
            <path d="M83.7968,12.93 C83.7968,19.143 80.1878,21.563 70.9268,21.563 C68.3668,21.563 65.7408,21.535 61.8338,21.205 L61.8338,5.308 C65.0138,4.956 68.3888,4.755 71.1538,4.755 C80.3708,4.755 83.7968,6.837 83.7968,12.93 M88.4108,12.947 C88.4108,2.308 80.0078,0.841 70.9268,0.841 C66.5588,0.841 61.8318,1.185 57.6158,1.762 L57.2388,1.822 L57.2388,42.057 L61.8338,42.057 L61.8338,25.022 C64.2418,25.128 69.0788,25.311 71.4388,25.311 L72.2038,25.311 L82.8348,42.057 L88.2248,42.057 L77.1358,24.98 C84.8238,23.902 88.4108,20.065 88.4108,12.947" id="Fill-23"></path>
            <path d="M177.6236,22.0702 C177.4806,23.9982 177.4806,25.5162 177.4806,27.1052 C177.4806,33.1582 178.5876,39.0502 186.9616,39.0502 C195.0316,39.0502 197.6926,36.5142 197.6926,29.8552 C197.6926,22.5882 193.9606,21.1952 186.9076,21.1952 C184.4616,21.1952 180.4986,21.6772 177.6236,22.0702 M202.1206,29.9442 C202.1206,40.2642 196.1926,42.7992 187.1226,42.7992 C175.6416,42.7992 173.0526,36.4072 173.0526,26.2482 C173.0526,7.4832 177.1416,1.5912 195.5136,1.5912 C195.9246,1.5912 196.4246,1.5912 198.8526,1.6442 L199.2236,5.3842 C189.7186,5.7802 178.4266,4.7512 177.9096,18.4102 C181.1056,17.9992 185.1936,17.5882 188.0866,17.5882 C196.7996,17.5882 202.1206,19.9632 202.1206,29.9442" id="Fill-25"></path>
        </g>
    </g>
</svg>