<?xml version="1.0" encoding="UTF-8"?>
<svg width="212px" height="42px" viewBox="0 0 212 42" version="1.1" xmlns="http://www.w3.org/2000/svg" xmlns:xlink="http://www.w3.org/1999/xlink">
    <!-- Generator: Sketch 39 (31667) - http://www.bohemiancoding.com/sketch -->
    <title>Group 17</title>
    <desc>Created with Sketch.</desc>
    <defs></defs>
    <g id="Page-1" stroke="none" stroke-width="1" fill="none" fill-rule="evenodd">
        <g id="Group-17" fill="#1A1918">
            <g id="Group-2">
                <path d="M26.1208,12.2417 C26.1208,18.5467 22.5588,20.8257 13.4238,20.8257 C10.9248,20.8257 8.3618,20.7967 4.5518,20.4587 L4.5518,4.5617 C7.5458,4.2167 10.8378,4.0207 13.6458,4.0207 C18.2828,4.0207 21.3388,4.5077 23.2618,5.8577 C25.0998,7.1477 26.1208,9.1767 26.1208,12.2417 M25.3248,2.3397 C22.6578,0.8687 18.9878,0.2127 13.4238,0.2127 C9.1538,0.2127 4.5528,0.5237 0.4678,1.0897 L0.1038,1.1397 L0.1038,40.3087 L4.5518,40.3087 L4.5518,24.3657 C6.3508,24.4457 11.4718,24.6647 13.9228,24.6647 C19.3788,24.6647 23.1288,23.8107 25.7238,22.2077 C28.8848,20.2547 30.4218,16.9957 30.4218,12.2417 C30.4218,7.4697 28.7548,4.2307 25.3248,2.3397" id="Fill-9"></path>
                <path d="M127.1059,36.9716 C115.7459,36.9716 115.1689,30.8226 115.1689,20.5996 C115.1689,10.3756 115.8549,4.1826 127.2159,4.1826 C134.2069,4.1826 136.2899,6.6766 137.3309,8.6066 C138.8979,11.5116 139.0249,15.7566 139.0249,20.5996 C139.0249,25.4326 138.8979,29.6696 137.3309,32.5786 C136.2879,34.5146 134.0939,36.9716 127.1059,36.9716 M127.1059,0.2126 C120.6789,0.2126 116.5099,1.7536 113.9879,5.0626 C111.6179,8.1716 110.5609,12.9636 110.5609,20.5996 C110.5609,28.2356 111.6179,33.0276 113.9879,36.1366 C116.5099,39.4456 120.6789,40.9866 127.1059,40.9866 C133.5169,40.9866 137.6749,39.4446 140.1929,36.1366 C142.5599,33.0256 143.6149,28.2336 143.6149,20.5996 C143.6149,12.9646 142.5599,8.1736 140.1929,5.0626 C137.6749,1.7536 133.5169,0.2126 127.1059,0.2126" id="Fill-11"></path>
                <path d="M81.4275,11.9731 C81.4275,18.0171 77.9165,20.3721 68.9065,20.3721 C66.4165,20.3721 63.8625,20.3441 60.0605,20.0231 L60.0605,4.5581 C63.1545,4.2151 66.4385,4.0201 69.1285,4.0201 C78.0945,4.0201 81.4275,6.0451 81.4275,11.9731 M85.9165,11.9901 C85.9165,1.6391 77.7405,0.2121 68.9065,0.2121 C64.6575,0.2121 60.0585,0.5471 55.9575,1.1081 L55.5905,1.1661 L55.5905,40.3091 L60.0605,40.3091 L60.0605,23.7371 C62.4035,23.8401 67.1095,24.0181 69.4055,24.0181 L70.1495,24.0181 L80.4915,40.3091 L85.7355,40.3091 L74.9475,23.6951 C82.4265,22.6481 85.9165,18.9141 85.9165,11.9901" id="Fill-13"></path>
                <path d="M187.3189,20.8651 C187.1799,22.7411 187.1799,24.2171 187.1799,25.7631 C187.1799,31.6521 188.2569,37.3841 196.4029,37.3841 C204.2549,37.3841 206.8429,34.9171 206.8429,28.4381 C206.8429,21.3691 203.2119,20.0141 196.3509,20.0141 C193.9719,20.0141 190.1159,20.4831 187.3189,20.8651 M211.1509,28.5251 C211.1509,38.5651 205.3839,41.0311 196.5599,41.0311 C185.3909,41.0311 182.8719,34.8131 182.8719,24.9301 C182.8719,6.6741 186.8499,0.9421 204.7239,0.9421 C205.1229,0.9421 205.6089,0.9421 207.9719,0.9941 L208.3329,4.6331 C199.0859,5.0171 188.1009,4.0161 187.5969,17.3041 C190.7059,16.9051 194.6839,16.5051 197.4979,16.5051 C205.9739,16.5051 211.1509,18.8151 211.1509,28.5251" id="Fill-15"></path>
            </g>
        </g>
    </g>
</svg>