<?xml version="1.0" encoding="utf-8"?>
<!-- Generator: Adobe Illustrator 17.0.0, SVG Export Plug-In . SVG Version: 6.00 Build 0)  -->
<!DOCTYPE svg PUBLIC "-//W3C//DTD SVG 1.1//EN" "http://www.w3.org/Graphics/SVG/1.1/DTD/svg11.dtd">
<svg version="1.1" id="图层_1" xmlns="http://www.w3.org/2000/svg" xmlns:xlink="http://www.w3.org/1999/xlink" x="0px" y="0px"
	 width="209.853px" height="43.83px" viewBox="0 0 209.853 43.83" enable-background="new 0 0 209.853 43.83" xml:space="preserve">
<g>
	<path d="M27.111,2.287C24.245,0.705,20.299,0,14.319,0C9.728,0,4.782,0.335,0.392,0.943L0,0.998v42.104h4.781V25.964
		c1.934,0.087,7.438,0.322,10.074,0.322c5.865,0,9.896-0.919,12.685-2.642c3.398-2.099,5.05-5.603,5.05-10.712
		C32.59,7.802,30.798,4.32,27.111,2.287z M27.967,12.931c0,6.777-3.829,9.227-13.648,9.227c-2.687,0-5.442-0.031-9.537-0.394V4.676
		c3.218-0.37,6.757-0.582,9.776-0.582c4.985,0,8.269,0.523,10.336,1.975C26.869,7.456,27.967,9.636,27.967,12.931z"/>
	<path d="M136.52,0c-6.909,0-11.39,1.657-14.101,5.213c-2.548,3.342-3.684,8.493-3.684,16.702s1.136,13.359,3.684,16.702
		c2.711,3.557,7.192,5.213,14.101,5.213c6.891,0,11.361-1.657,14.068-5.214c2.544-3.344,3.679-8.495,3.679-16.701
		s-1.135-13.357-3.679-16.701C147.882,1.657,143.411,0,136.52,0z M136.52,39.514c-12.212,0-12.832-6.61-12.832-17.599
		s0.738-17.647,12.95-17.647c7.515,0,9.754,2.681,10.874,4.756c1.684,3.123,1.821,7.686,1.821,12.891
		c0,5.196-0.137,9.751-1.821,12.878C146.391,36.874,144.032,39.514,136.52,39.514z"/>
	<path d="M92.243,12.66C92.243,1.534,83.456,0,73.959,0c-4.567,0-9.511,0.36-13.919,0.963l-0.395,0.062v42.076h4.805V25.288
		c2.519,0.111,7.577,0.302,10.045,0.302h0.8l11.117,17.512h5.637L80.453,25.243C88.492,24.117,92.243,20.104,92.243,12.66z
		 M87.418,12.642c0,6.497-3.774,9.028-13.459,9.028c-2.676,0-5.423-0.029-9.509-0.375V4.672c3.326-0.368,6.856-0.579,9.747-0.579
		C83.835,4.093,87.418,6.27,87.418,12.642z"/>
	<g>
		<path d="M186.552,43.83l19.223-40.363h-25.016V0.075h25.887c1.463,0,3.207,0.368,3.207,2.121c0,0.539-0.161,1.15-0.492,1.867
			L191.127,43.83H186.552z"/>
	</g>
</g>
</svg>
