<?xml version="1.0" encoding="utf-8"?>
<!-- Generator: Adobe Illustrator 17.0.0, SVG Export Plug-In . SVG Version: 6.00 Build 0)  -->
<!DOCTYPE svg PUBLIC "-//W3C//DTD SVG 1.1//EN" "http://www.w3.org/Graphics/SVG/1.1/DTD/svg11.dtd">
<svg version="1.1" id="图层_1" xmlns="http://www.w3.org/2000/svg" xmlns:xlink="http://www.w3.org/1999/xlink" x="0px" y="0px"
	 width="402.32px" height="27.767px" viewBox="0 0 402.32 27.767" enable-background="new 0 0 402.32 27.767" xml:space="preserve">
<g>
	<path d="M16.989,1.433C15.192,0.442,12.72,0,8.972,0C6.096,0,2.997,0.21,0.245,0.591L0,0.625v26.384h2.996V16.27
		c1.212,0.054,4.661,0.202,6.313,0.202c3.675,0,6.201-0.576,7.949-1.656c2.129-1.315,3.164-3.511,3.164-6.713
		C20.422,4.889,19.299,2.707,16.989,1.433z M17.525,8.103c0,4.247-2.399,5.782-8.552,5.782c-1.684,0-3.41-0.019-5.976-0.247V2.93
		C5.013,2.698,7.23,2.565,9.122,2.565c3.124,0,5.182,0.328,6.477,1.237C16.837,4.672,17.525,6.038,17.525,8.103z"/>
	<path d="M85.548,0c-4.329,0-7.137,1.038-8.836,3.267c-1.596,2.094-2.308,5.322-2.308,10.466s0.712,8.371,2.308,10.466
		c1.699,2.229,4.507,3.267,8.836,3.267c4.318,0,7.119-1.038,8.815-3.267c1.594-2.095,2.305-5.323,2.305-10.466
		s-0.711-8.37-2.305-10.465C92.667,1.038,89.866,0,85.548,0z M85.548,24.761c-7.652,0-8.041-4.142-8.041-11.028
		s0.462-11.058,8.115-11.058c4.709,0,6.112,1.68,6.814,2.98c1.055,1.957,1.141,4.816,1.141,8.078c0,3.256-0.086,6.11-1.141,8.07
		C91.733,23.106,90.255,24.761,85.548,24.761z"/>
	<path d="M57.803,7.933C57.803,0.961,52.296,0,46.345,0c-2.862,0-5.96,0.225-8.722,0.604l-0.247,0.039v26.366h3.011V15.846
		c1.578,0.07,4.748,0.189,6.294,0.189h0.501l6.966,10.974h3.532l-7.267-11.191C55.452,15.112,57.803,12.598,57.803,7.933z
		 M54.779,7.922c0,4.071-2.365,5.657-8.434,5.657c-1.677,0-3.398-0.018-5.959-0.235V2.927c2.084-0.231,4.296-0.363,6.108-0.363
		C52.534,2.565,54.779,3.929,54.779,7.922z"/>
	<g>
		<path d="M116.899,27.465l12.046-25.293h-15.676V0.047h16.222c0.917,0,2.01,0.23,2.01,1.329c0,0.338-0.101,0.72-0.308,1.17
			l-11.426,24.919H116.899z"/>
	</g>
</g>
<g>
	<path fill="#040000" d="M201.064,1.735c-1.796-0.991-4.269-1.433-8.016-1.433c-2.877,0-5.976,0.21-8.727,0.591l-0.245,0.034v26.384
		h2.996V16.572c1.212,0.054,4.661,0.202,6.312,0.202c3.675,0,6.201-0.576,7.949-1.656c2.129-1.315,3.164-3.511,3.164-6.713
		C204.497,5.191,203.374,3.009,201.064,1.735z M201.6,8.405c0,4.247-2.399,5.782-8.552,5.782c-1.684,0-3.41-0.019-5.976-0.247V3.232
		c2.017-0.232,4.234-0.364,6.126-0.364c3.124,0,5.182,0.328,6.477,1.237C200.912,4.974,201.6,6.34,201.6,8.405z"/>
	<path fill="#040000" d="M269.623,0.302c-4.329,0-7.137,1.038-8.836,3.267c-1.596,2.094-2.308,5.322-2.308,10.466
		s0.712,8.371,2.308,10.466c1.699,2.229,4.507,3.267,8.836,3.267c4.318,0,7.119-1.038,8.815-3.267
		c1.594-2.095,2.305-5.323,2.305-10.466s-0.711-8.37-2.305-10.465C276.742,1.34,273.941,0.302,269.623,0.302z M269.623,25.063
		c-7.652,0-8.041-4.142-8.041-11.028s0.462-11.058,8.115-11.058c4.709,0,6.112,1.68,6.814,2.98c1.055,1.957,1.141,4.816,1.141,8.078
		c0,3.256-0.086,6.11-1.141,8.07C275.808,23.408,274.33,25.063,269.623,25.063z"/>
	<path fill="#040000" d="M241.878,8.235c0-6.972-5.507-7.933-11.458-7.933c-2.862,0-5.96,0.225-8.722,0.604l-0.247,0.039v26.366
		h3.011V16.148c1.578,0.07,4.748,0.189,6.294,0.189h0.501l6.966,10.974h3.532L234.49,16.12
		C239.527,15.414,241.878,12.9,241.878,8.235z M238.854,8.224c0,4.071-2.365,5.657-8.434,5.657c-1.677,0-3.398-0.018-5.959-0.235
		V3.229c2.084-0.231,4.296-0.363,6.108-0.363C236.609,2.867,238.854,4.231,238.854,8.224z"/>
	<g>
		<path fill="#040000" d="M323.927,27.767V0.924c2.436-0.386,5.374-0.606,8.105-0.606c6.236,0,10.39,1.358,10.39,7.987
			c0,7.164-4.841,8.152-10.072,8.152c-1.499,0-4.269-0.115-5.662-0.188l-0.296-0.015v11.513H323.927z M332.173,2.229
			c-1.757,0-3.775,0.134-5.537,0.367l-0.244,0.032V14.27l0.251,0.027c2.14,0.23,3.707,0.249,5.389,0.249
			c4.764,0,7.937-1.061,7.937-6.24C339.969,3.933,337.783,2.229,332.173,2.229z"/>
		<path fill="#040000" d="M363.531,27.764c-7.005,0-7.575-3.329-7.575-7.351V7.067h2.3v12.828c0,4.169,0.901,6.029,6.241,6.029
			c1.649,0,4.351-0.422,5.745-1.05l0.155-0.07l0.01-0.17c0.061-1.032,0.083-2.383,0.083-3.303V7.067h2.288V22.71
			c0,1.158-0.032,2.298-0.095,3.391C370.143,27.174,366.902,27.764,363.531,27.764z"/>
		<path fill="#040000" d="M384.592,27.764c-2.238,0-4.324-0.208-6.367-0.635l0.214-1.705c1.373,0.216,3.295,0.452,5.152,0.452
			c2.382,0,6.37,0,6.37-3.567c0-2.791-1.898-3.356-5.043-4.293l-0.723-0.216c-3.188-0.948-5.941-1.766-5.941-5.68
			c0-3.691,2.151-5.337,6.974-5.337c2.341,0,4.25,0.186,6.519,0.637l-0.213,1.665c-1.34-0.225-3.075-0.461-5.011-0.461
			c-2.233,0-5.97,0-5.97,3.226c0,2.717,1.962,3.297,4.446,4.032c0.297,0.088,0.605,0.179,0.922,0.277
			c4.349,1.348,6.398,2.379,6.398,5.986C392.32,25.978,389.864,27.764,384.592,27.764z"/>
		<rect x="347.366" y="0.318" fill="#040000" width="2.3" height="27.428"/>
	</g>
	<path fill="#040000" d="M300.981,27.767l12.066-25.336h-15.703V0.302h16.25c0.918,0,2.013,0.231,2.013,1.331
		c0,0.339-0.101,0.722-0.309,1.172l-11.446,24.962H300.981z"/>
</g>
<g>
	<path d="M161.833,19.339l0.923,0.978c-0.593,0.525-1.156,0.978-1.688,1.359c0.371,0.341,0.855,0.81,1.451,1.406
		c0.471,0.468,0.875,0.901,1.214,1.296h-1.9l-1.808-1.862c-1.136,0.914-2.058,1.51-2.768,1.787c-0.71,0.279-1.461,0.417-2.252,0.417
		c-1.05,0-1.893-0.301-2.529-0.903c-0.636-0.602-0.954-1.353-0.954-2.256c0-0.68,0.214-1.361,0.644-2.044
		c0.429-0.683,1.304-1.546,2.625-2.59c-0.746-0.902-1.226-1.567-1.439-1.996c-0.213-0.429-0.319-0.838-0.319-1.227
		c0-0.679,0.262-1.241,0.787-1.685c0.605-0.518,1.359-0.778,2.26-0.778c0.569,0,1.087,0.114,1.557,0.342s0.828,0.536,1.075,0.922
		c0.247,0.386,0.371,0.795,0.371,1.228c0,0.457-0.161,0.944-0.482,1.459c-0.322,0.516-0.956,1.175-1.902,1.978l2.066,2.168
		l1.353,1.373C160.844,20.177,161.417,19.72,161.833,19.339z M155.689,17.956c-1.158,0.872-1.917,1.565-2.276,2.081
		c-0.359,0.516-0.539,0.993-0.539,1.432c0,0.519,0.22,0.978,0.659,1.376s0.978,0.598,1.615,0.598c0.482,0,0.956-0.099,1.42-0.296
		c0.73-0.315,1.567-0.85,2.511-1.604l-2.149-2.215C156.559,18.938,156.145,18.481,155.689,17.956z M155.854,16.152
		c0.663-0.513,1.16-1.016,1.495-1.51c0.235-0.352,0.353-0.664,0.353-0.936c0-0.315-0.154-0.586-0.46-0.815
		c-0.306-0.228-0.714-0.342-1.222-0.342c-0.483,0-0.876,0.118-1.18,0.352c-0.304,0.235-0.455,0.513-0.455,0.834
		c0,0.247,0.062,0.479,0.186,0.695C154.874,14.954,155.303,15.528,155.854,16.152z"/>
</g>
</svg>
