<?xml version="1.0" encoding="utf-8"?>
<!-- Generator: Adobe Illustrator 17.0.0, SVG Export Plug-In . SVG Version: 6.00 Build 0)  -->
<!DOCTYPE svg PUBLIC "-//W3C//DTD SVG 1.1//EN" "http://www.w3.org/Graphics/SVG/1.1/DTD/svg11.dtd">
<svg version="1.1" id="图层_1" xmlns="http://www.w3.org/2000/svg" xmlns:xlink="http://www.w3.org/1999/xlink" x="0px" y="0px"
	 width="353.958px" height="97.079px" viewBox="11 11 353.958 97.079" enable-background="new 11 11 353.958 97.079"
	 xml:space="preserve">
<g>
	<path fill="#231815" d="M53.925,72.176v16.242c0,1.691,1.371,3.065,3.065,3.065h14.931v-5.852H59.795V72.176H53.925z"/>
	<path fill="#231815" d="M105.539,96.063c-0.926,3.345-3.549,4.716-9.05,4.716H51.6c-5.518,0-7.472-1.994-7.472-7.623V72.176h-6.555
		c0,0,1.218-4.801,1.952-9.285h20.267V23.078c0-1.691-1.371-3.065-3.065-3.065H34.548v-9.011h-6.719v9.011h-8.71
		c-1.691,0-3.065,1.371-3.065,3.065v39.812h16.984C30.8,77.592,23.461,90.956,11,102.865c2.796,1.983,5.124,5.215,5.124,5.215
		C30.242,94.134,35.179,80.697,37.57,72.598v21.063c0,10.353,3.487,13.676,14.347,13.676h44.979c8.872,0,13.395-2.864,15.126-9.577
		c0.776-2.586,1.314-5.671,1.612-9.206l-6.201-1.694C106.918,90.506,106.278,93.602,105.539,96.063z M41,26.52h12.495v11.73H41
		V26.52z M40.992,44.674h12.5v11.798H40.284C40.955,50.243,40.992,44.674,40.992,44.674z M34.012,56.475H22.481V44.677h12.177
		C34.658,45.889,34.735,51.215,34.012,56.475z M34.987,38.25H22.481V26.52h12.506V38.25z"/>
	<path fill="#231815" d="M65.638,71.482c1.493,1.399,2.705,2.926,4.323,5.221c4.49-3.575,11.911-12.407,15.446-21.001l0.003,35.722
		h6.719V55.922c3.085,6.32,9.875,15.418,16.948,20.82c1.524-1.827,3.439-4.303,4.334-5.354c-12.56-8.96-17.874-17.537-20.944-24.363
		h18.021v-6.422H92.132V26.475h18.355v-6.422H92.132V11H85.41v9.053H67.822v6.422H85.41v14.129H67.822v6.422h17.183
		C81.099,56.129,74.895,64.109,65.638,71.482z"/>
	<rect x="178.249" y="58.514" fill="#231815" width="37.26" height="6.549"/>
	<path fill="#231815" d="M215.509,40.604h-30.233v-6.878h-7.028v10.362c0,1.691,1.371,3.065,3.065,3.065h34.198v-6.549H215.509z"/>
	<rect x="158.557" y="33.726" fill="#231815" width="7.025" height="32.518"/>
	<rect x="137.66" y="33.726" fill="#231815" width="7.028" height="32.518"/>
	<polygon fill="#231815" points="222.265,20.056 203.264,20.056 203.264,11.003 196.542,11.003 196.542,20.056 155.883,20.056 
		155.883,11.003 149.164,11.003 149.164,20.056 130.171,20.056 130.171,26.477 222.265,26.477 	"/>
	<path fill="#231815" d="M215.489,100.443V77.98c0-1.691-1.371-3.065-3.065-3.065h-72.416c-1.691,0-3.062,1.371-3.062,3.065v22.463
		h-8.121v6.549h94.785v-6.549H215.489z M161.106,100.443h-17.44V81.467h17.443v18.976H161.106z M184.62,100.443h-16.795V81.467
		h16.795V100.443z M208.77,100.443h-17.432V81.467h17.432V100.443z"/>
</g>
<path fill="#231815" d="M254.642,40.674c0,11.662,4.093,13.818,20.619,18.644c13.126,3.801,23.836,9.322,23.836,24.094
	c0,17.253-10.676,23.582-29.833,23.582c-9.064,0-14.441-0.55-21.021-1.864l0.731-6.033c6.872,1.059,13.857,1.572,19.925,1.572
	c13.197,0,22.74-3.071,22.74-16.814c0-11.078-7.056-14.404-20.219-18.353c-15.027-4.498-23.947-8.3-23.947-23.179
	c0-16.78,10.274-22.264,28.663-22.264c7.274,0,13.883,0.731,19.95,1.753l-0.657,5.923c-5.119-0.768-10.115-1.354-15.71-1.354
	C265.244,26.378,254.642,28.61,254.642,40.674z"/>
<path fill="#231815" d="M364.958,81.501c0,21.344-9.543,26.576-28.343,26.576c-15.064,0-27.884-4.759-27.686-34.464
	c0.266-39.47,8.597-51.806,47.135-51.806l0.51,6.235c-20.99,0.671-38.39,0.601-39.767,30.139c8.022-1.569,17.344-2.28,21.485-2.28
	C356.273,55.897,364.958,60.795,364.958,81.501z M316.285,64.46c-0.261,4.637-0.255,7.512-0.255,10.951
	c0,23.018,10.869,26.389,20.248,26.389c18.166,0,21.579-5.756,21.579-20.483c0-16.259-5.957-19.25-22.103-19.25
	C332.428,62.066,323.089,63.041,316.285,64.46z"/>
</svg>
