<?xml version="1.0" encoding="UTF-8"?>
<svg width="161px" height="40px" viewBox="0 0 161 40" version="1.1" xmlns="http://www.w3.org/2000/svg" xmlns:xlink="http://www.w3.org/1999/xlink">
    <!-- Generator: Sketch 39 (31667) - http://www.bohemiancoding.com/sketch -->
    <title>Group 11</title>
    <desc>Created with Sketch.</desc>
    <defs></defs>
    <g id="Page-1" stroke="none" stroke-width="1" fill="none" fill-rule="evenodd">
        <g id="Group-11" fill="#1A1918">
            <polygon id="Fill-112" points="66.207 21.974 71.121 21.974 71.121 19.968 66.207 19.968"></polygon>
            <polygon id="Fill-113" points="17.6859 18.5888 17.6859 18.8048 17.5839 18.8048 16.6269 20.8118 19.8569 20.8118 19.8569 20.8098 19.8569 18.8048 19.8569 14.0258"></polygon>
            <polygon id="Fill-114" points="24.6445 3.9656 23.5335 3.9656 22.3635 3.9656 22.3635 5.9696 23.6895 5.9696"></polygon>
            <polygon id="Fill-115" points="19.8658 30.5132 19.8658 23.1502 17.8728 23.1502 17.8728 32.5062 19.8658 32.5062 27.2288 32.5062 27.2288 30.5132"></polygon>
            <path d="M40.0728,29.8498 C39.8498,31.5138 39.5738,32.9008 39.2398,34.0088 C38.9048,35.5668 37.5688,36.2908 35.2308,36.1818 L18.0198,36.1818 C15.3478,36.2908 14.0658,35.3448 14.1768,33.3418 L14.1768,23.1498 L12.1718,23.1498 L12.1718,33.8418 C11.9468,36.8498 13.7868,38.2958 17.6858,38.1868 L35.3978,38.1868 C38.8468,38.2958 40.7988,37.0718 41.2458,34.5098 C41.5728,33.4158 41.7928,32.1018 41.9068,30.5728 L40.0728,29.8498 Z" id="Fill-116"></path>
            <polygon id="Fill-117" points="49.252 21.974 51.258 21.974 51.258 10.796 49.252 10.796"></polygon>
            <polygon id="Fill-118" points="58.641 21.974 60.647 21.974 60.647 10.796 58.641 10.796"></polygon>
            <path d="M10.3347,10.1162 L10.3347,11.2342 L4.6537,11.2342 L4.6537,5.9882 L10.3347,5.9882 L10.3347,10.1162 Z M9.8337,18.8052 L4.6537,18.8052 L4.6537,13.2402 L10.1657,13.2402 C10.1627,15.3102 10.0517,17.1662 9.8337,18.8052 L9.8337,18.8052 Z M12.1717,9.7842 L12.1717,5.9882 L17.6857,5.9882 L17.6857,11.2342 L12.1717,11.2342 L12.1717,9.7842 Z M17.6857,13.2402 L17.6857,18.5892 L19.8577,14.0262 L19.8577,13.2402 L19.8577,11.2342 L19.8577,5.9882 L19.8577,3.9822 L19.8577,3.9492 L9.5237,3.9492 L9.5237,0.2622 L7.5187,0.2622 L7.5187,3.9492 L2.6497,3.9492 L2.6497,3.9822 L2.6477,3.9822 L2.6477,5.9882 L2.6497,5.9882 L2.6497,11.2342 L2.6477,11.2342 L2.6477,13.2402 L2.6497,13.2402 L2.6497,18.8052 L2.6477,18.8052 L2.6477,20.8122 L9.6667,20.8122 C8.7737,27.2722 5.8227,32.8982 0.8117,37.6862 C1.3677,38.1292 1.9227,38.6882 2.4817,39.3552 C7.7147,34.0092 10.7777,27.8272 11.6707,20.8122 L16.6297,20.8122 L17.5837,18.8052 L11.8377,18.8052 C12.0567,17.1662 12.1667,15.3102 12.1707,13.2402 L17.6857,13.2402 Z" id="Fill-119"></path>
            <path d="M30.3843,16.5063 L30.3843,32.5063 L32.3883,32.5063 L32.3883,16.3393 C33.9483,20.1283 36.2873,23.3023 39.4073,25.8623 C39.9633,25.1953 40.4643,24.5843 40.9113,24.0243 C37.2343,21.4643 34.4493,17.9003 32.5573,13.3323 L40.4083,13.3323 L40.4083,11.3283 L32.3883,11.3283 L32.3883,5.9693 L40.4103,5.9693 L40.4103,3.9663 L39.4073,3.9663 L32.3883,3.9663 L32.3883,0.2623 L30.3843,0.2623 L30.3843,3.9663 L24.6453,3.9663 L23.6913,5.9693 L30.3843,5.9693 L30.3843,11.3283 L22.3643,11.3283 L22.3643,13.3323 L30.3843,13.3323 C28.4893,17.9003 25.8743,21.4643 22.5313,24.0243 C22.9753,24.3593 23.4213,24.9183 23.8683,25.6973 C26.7643,23.3563 28.9353,20.2953 30.3843,16.5063" id="Fill-120"></path>
            <polygon id="Fill-121" points="72.1687 15.9687 79.3477 15.9687 79.3477 13.9627 73.1227 13.9627"></polygon>
            <polygon id="Fill-122" points="79.3478 21.9733 79.3478 19.9673 70.2668 19.9673 69.3118 21.9733"></polygon>
            <polygon id="Fill-123" points="46.4786 3.9381 46.4786 5.9581 50.2996 5.9581 51.2616 3.9381"></polygon>
            <polygon id="Fill-124" points="52.9372 0.2808 52.9372 0.4158 53.0002 0.2808"></polygon>
            <path d="M69.9639,35.5044 L69.9739,35.5044 L69.9739,26.7364 L77.3089,26.7364 L77.3089,36.1884 L69.9639,36.1884 L69.9639,35.5044 Z M69.9639,38.1944 L82.1139,38.1944 L82.1139,36.1884 L79.3509,36.1884 L79.3509,24.7304 L79.3369,24.7304 L78.7339,24.7304 L77.3319,24.7304 L77.3089,24.7304 L69.9739,24.7304 L67.9829,24.7304 L67.0289,26.7364 L67.9579,26.7364 L67.9579,36.1884 L62.5319,36.1884 L61.5779,38.1944 L67.9579,38.1944 L69.9639,38.1944 Z" id="Fill-125"></path>
            <polygon id="Fill-126" points="75.3593 3.9381 75.3593 0.2801 73.3533 0.2801 73.3533 3.9381 54.9443 3.9381 54.9443 0.2801 53.0013 0.2801 52.9383 0.4151 52.9383 3.9381 51.2613 3.9381 50.3003 5.9581 52.9383 5.9581 52.9383 8.8131 54.9443 8.8131 54.9443 5.9581 73.3533 5.9581 73.3533 8.8131 75.3593 8.8131 75.3593 5.9581 76.9193 5.9581 77.8803 3.9381"></polygon>
            <path d="M51.2794,35.9087 L51.2794,26.7367 L58.6364,26.7367 L58.6364,35.5047 L58.6614,35.5047 L58.6614,36.1887 L51.2794,36.1887 L51.2794,35.9087 Z M51.2794,38.1927 L58.6614,38.1927 L60.6674,38.1927 L61.6084,38.1927 L62.5634,36.1887 L60.6674,36.1887 L60.6674,26.7367 L67.0614,26.7367 L68.0154,24.7307 L68.0004,24.7307 L60.6424,24.7307 L58.6364,24.7307 L51.2794,24.7307 L49.2734,24.7307 L49.2734,26.7367 L49.2734,35.9087 L49.2734,36.1887 L46.5104,36.1887 L46.5104,38.1927 L49.2734,38.1927 L51.2794,38.1927 Z" id="Fill-127"></path>
            <polygon id="Fill-128" points="70.0098 13.9634 66.2328 13.9634 66.2328 10.7944 64.2268 10.7944 64.2268 15.9694 66.2328 15.9694 72.1698 15.9694 73.1238 13.9634"></polygon>
            <polygon id="Fill-129" points="82.1297 3.937 77.8937 3.937 76.9327 5.957 82.1297 5.957"></polygon>
            <path d="M35.3969,38.1868 C38.8489,38.2958 40.7979,37.0718 41.2449,34.5098 C41.5719,33.4158 41.7919,32.1018 41.9059,30.5728 L40.0719,29.8498 C39.8489,31.5138 39.5729,32.9008 39.2409,34.0088 C38.9409,35.4018 37.8339,36.1248 35.9319,36.1828 L34.9779,38.1868 L35.3969,38.1868 Z" id="Fill-130"></path>
            <path d="M99.123,38.1363 C91.363,38.1363 88.052,35.0783 88.052,27.9133 L88.052,6.5033 L90.144,6.5033 L90.144,28.2693 C90.144,33.7793 92.997,36.3463 99.123,36.3463 C105.334,36.3463 108.102,33.8543 108.102,28.2693 L108.102,6.5033 L110.207,6.5033 L110.207,27.9133 C110.207,35.0783 106.892,38.1363 99.123,38.1363" id="Fill-131"></path>
            <path d="M115.0865,36.6832 C116.5675,28.2972 117.7305,25.0812 124.1475,22.3552 C127.6265,20.8932 132.2525,18.3922 132.2525,13.6042 C132.2525,9.3722 129.7485,7.7972 123.0125,7.7972 C120.4655,7.7972 117.6265,8.1062 115.7055,8.4112 L115.5025,6.8052 C118.5825,6.2752 121.5085,6.0072 124.2025,6.0072 C131.0085,6.0072 134.3165,8.2422 134.3165,12.8372 C134.3165,17.8882 131.6145,21.2542 125.5585,23.7532 C119.8115,26.1412 118.4235,29.1392 117.6325,34.5582 L117.5865,34.8802 L134.3025,34.8802 L134.3025,36.6832 L115.0865,36.6832 Z" id="Fill-132"></path>
            <path d="M149.8245,7.7296 C141.2545,7.7296 141.2545,14.1146 141.2545,21.5106 C141.2545,28.5956 141.2545,35.2896 149.8245,35.2896 C157.8355,35.2896 158.4335,29.8336 158.4335,21.5106 C158.4335,13.1856 157.8355,7.7296 149.8245,7.7296 M149.8245,37.0106 C140.8355,37.0106 139.1915,31.7916 139.1915,21.5106 C139.1915,11.2276 140.8355,6.0076 149.8245,6.0076 C158.8475,6.0076 160.4975,11.2276 160.4975,21.5106 C160.4975,31.7916 158.8475,37.0106 149.8245,37.0106" id="Fill-133"></path>
        </g>
    </g>
</svg>